<svg width="70" height="70" viewBox="0 0 70 70" fill="none" xmlns="http://www.w3.org/2000/svg">
<circle cx="35" cy="35" r="35" fill="#FF6F55"/>
<g clip-path="url(#clip0_28_883)">
<path d="M34.5117 48.2891V44.9474C35.8037 44.8357 37.0148 44.2717 37.9318 43.3548C38.8488 42.4378 39.4127 41.2267 39.5244 39.9347H42.8661C42.7581 42.1155 41.8433 44.1783 40.2993 45.7223C38.7553 47.2662 36.6925 48.1811 34.5117 48.2891Z" fill="white"/>
<path fill-rule="evenodd" clip-rule="evenodd" d="M33.8814 13.7162C34.0763 13.6158 34.2924 13.5634 34.5116 13.5634C34.7309 13.5634 34.9469 13.6158 35.1418 13.7162C35.3338 13.8151 35.4997 13.9578 35.6262 14.1327L46.698 31.7608C48.2342 34.2203 49.093 37.0421 49.1875 39.9403C49.1812 43.8291 47.6336 47.5568 44.8837 50.3067C42.1325 53.058 38.4024 54.6057 34.5116 54.6106C30.6208 54.6057 26.8908 53.058 24.1395 50.3067C21.3896 47.5568 19.842 43.8289 19.8357 39.94C19.9246 37.0748 20.7667 34.2835 22.2771 31.8471L22.2776 31.8462L33.397 14.1327C33.5236 13.9578 33.6895 13.8151 33.8814 13.7162ZM44.4283 33.0655L34.5115 17.2784L24.544 33.152C23.2654 35.1858 22.5444 37.5203 22.4536 39.921L22.4533 39.9278V39.9347C22.4533 43.1327 23.7238 46.1998 25.9851 48.4611C28.2465 50.7225 31.3136 51.9929 34.5116 51.9929C37.7097 51.9929 40.7767 50.7225 43.0381 48.4611C45.2994 46.1998 46.5699 43.1327 46.5699 39.9347V39.9274L46.5696 39.9201C46.4717 37.4868 45.7332 35.1225 44.4287 33.0662L44.4283 33.0655Z" fill="white"/>
<line x1="16.5332" y1="46.1156" x2="52.5332" y2="27.1156" stroke="white" stroke-width="2"/>
</g>
<defs>
<clipPath id="clip0_28_883">
<rect width="38" height="42" fill="white" transform="translate(12 13)"/>
</clipPath>
</defs>
</svg>
