<svg width="70" height="70" viewBox="0 0 70 70" fill="none" xmlns="http://www.w3.org/2000/svg">
<circle cx="35" cy="35" r="35" fill="#FF6F55"/>
<g clip-path="url(#clip0_28_916)">
<path d="M34.5001 20C29.4251 20 23.4543 21.2075 18.3563 23.8336L17.5645 24.2372V25.1373C17.5645 30.5492 17.6662 44.9911 33.753 54.5494L34.5001 55L35.2471 54.5494C51.334 44.9911 51.4357 30.5492 51.4357 25.1373V24.2492L50.6493 23.8391C45.6137 21.2009 39.5751 19.9989 34.5001 19.9989V20ZM34.5001 22.9345C38.8412 22.9345 44.1043 24.0447 48.4618 26.1414C48.4498 31.8103 47.8526 42.9753 34.5001 51.4114C21.1476 42.9753 20.5438 31.8103 20.5384 26.1414C24.9648 24.0403 30.159 22.9345 34.5001 22.9345ZM41.8424 31.0512C41.4607 31.0633 41.137 31.3017 40.9543 31.4844L33.1099 39.6252L30.1699 36.1044C28.7798 34.4933 26.8723 35.7402 26.4337 36.03L33.2532 43.9487L42.5665 31.3356C42.4706 31.243 42.3574 31.1702 42.2333 31.1214C42.1093 31.0726 41.9768 31.0488 41.8435 31.0512H41.8424Z" fill="white"/>
</g>
<defs>
<clipPath id="clip0_28_916">
<rect width="35" height="35" fill="white" transform="translate(17 20)"/>
</clipPath>
</defs>
</svg>
