<svg width="142" height="130" viewBox="0 0 142 130" fill="none" xmlns="http://www.w3.org/2000/svg">
<g clip-path="url(#clip0_28_47)">
<path fill-rule="evenodd" clip-rule="evenodd" d="M30.4 0.391043C25.9221 5.26413 24.2218 18.4433 27.289 24.5053C27.8279 25.5705 28.0918 25.562 28.8264 24.4555C31.8574 19.8903 33.2754 13.3238 32.6049 6.95674C32.2787 3.85985 31.3393 0 30.9116 0C30.8279 0 30.5976 0.176056 30.4 0.391043ZM111.892 0.304144C111.806 0.471511 111.608 1.15575 111.451 1.82487C109.472 10.299 110.593 19.1919 114.326 24.6357C114.976 25.5825 115.213 25.5657 115.654 24.541C118.495 17.9348 117.084 5.7339 112.89 0.645481C112.294 -0.0771663 112.118 -0.137299 111.892 0.304144ZM45.9725 1.60328C39.9765 4.69356 35.1884 11.0097 33.2229 18.4225C32.5276 21.0449 32.6578 21.368 34.1277 20.6703C40.0676 17.851 45.8177 10.4739 47.5299 3.47594C48.2416 0.566925 48.1643 0.47377 45.9725 1.60328ZM95.9481 1.09648C95.895 1.23483 96.0472 2.21591 96.286 3.27659C97.8225 10.0976 102.565 16.7801 108.299 20.2047C110.449 21.4891 110.705 21.3059 110.118 18.899C108.258 11.2577 103.373 4.3948 97.7843 1.57112C96.436 0.88984 96.0642 0.79373 95.9481 1.09648ZM21.0295 13.6865C16.5783 20.5005 15.0965 32.7814 17.945 39.2501C18.4848 40.4757 18.591 40.4046 19.8748 37.9614C24.3113 29.5178 25.2676 20.3909 22.4003 13.8603C21.8678 12.6475 21.7204 12.6289 21.0295 13.6865ZM120.664 13.2374C118.599 16.429 118.236 24.2241 119.859 30.5013C120.666 33.6238 123.509 40.1411 124.067 40.146C124.306 40.1481 124.735 39.0949 125.148 37.4947C126.902 30.6882 125.902 22.1958 122.542 15.3642C121.396 13.0334 121.05 12.6413 120.664 13.2374ZM43.8204 18.5495C37.9175 20.0236 33.4487 22.4851 29.4352 26.4731C26.0702 29.8169 23.067 34.4782 24.4855 34.1558C24.7006 34.1068 25.2676 33.986 25.7455 33.8872C31.2811 32.7428 37.7804 28.9526 41.6288 24.6246C43.3828 22.652 45.6343 19.0003 45.3651 18.5646C45.2716 18.4136 44.3993 18.4051 43.8204 18.5495ZM98.4452 18.5132C98.1793 18.7822 99.4348 21.2527 100.87 23.2846C104.272 28.101 112.815 33.4938 117.87 34.0153C119.099 34.1422 119.093 34.0572 117.713 31.7591C114.962 27.1794 110.527 23.0609 105.784 20.6823C103.31 19.4418 98.8349 18.119 98.4452 18.5132ZM7.26744 26.2868C5.37357 33.9006 6.65706 41.2793 10.841 46.833C12.7488 49.3652 15.4046 51.7914 15.4046 51.0021C15.4046 50.9503 15.5369 50.305 15.6983 49.5682C16.1236 47.6292 16.1219 42.445 15.6952 39.9119C14.7412 34.247 12.4829 29.6011 9.2416 26.6344C7.8149 25.3284 7.51875 25.2763 7.26744 26.2868ZM132.949 26.6318C127.854 31.5248 125.253 41.3513 126.805 49.8463C127.114 51.5351 127.235 51.5165 129.178 49.4819C134.445 43.9645 136.536 36.8244 135.263 28.7022C134.693 25.0676 134.634 25.0144 132.949 26.6318ZM30.3511 34.7908C22.1523 39.8203 17.7799 46.4533 17.0541 54.9631C16.8867 56.9242 17.307 56.9094 20.0198 54.8591C25.4082 50.7865 29.569 43.92 31.0489 36.6581C31.5263 34.3153 31.4518 34.1156 30.3511 34.7908ZM111.812 34.5192C111.583 34.7489 112.429 38.5829 113.258 41.0696C115.212 46.931 119.362 52.763 123.592 55.592C125.382 56.7891 125.418 56.7805 125.418 55.1589C125.418 50.0933 122.697 43.8776 118.558 39.4892C116.314 37.1101 112.23 34.1012 111.812 34.5192ZM5.6195 45.8191C5.39721 46.0414 5.49454 50.0712 5.76635 51.9023C6.7629 58.6133 10.6219 64.9583 16.3096 69.2377C17.3072 69.9881 17.38 69.8192 17.2653 67.0167C17.0124 60.8386 15.1528 55.4045 11.7978 51.0403C9.96789 48.6596 6.07154 45.3669 5.6195 45.8191ZM135.313 46.2564C129.153 50.7012 125.244 58.9613 125.244 67.5307C125.244 70.1559 125.224 70.147 127.145 68.3784C133.416 62.6033 136.35 56.364 136.426 48.6395C136.458 45.467 136.445 45.4393 135.313 46.2564ZM21.3537 57.3095C17.8885 64.9373 19.1908 74.941 24.7811 83.6397C25.758 85.1601 25.9186 85.2386 26.2803 84.3731C27.3943 81.7069 27.8133 75.0656 27.1279 70.9416C26.3979 66.5501 24.9544 61.9255 22.9338 57.5052C22.1714 55.8373 22.0303 55.8199 21.3537 57.3095ZM119.548 58.1793C115.625 67.4684 114.383 77.6738 116.435 83.7532C116.935 85.2346 117.071 85.2331 118.003 83.7351C123.371 75.108 124.637 65.2586 121.388 57.3964C121.101 56.7033 120.764 56.1364 120.639 56.1364C120.513 56.1364 120.026 57.0481 119.548 58.1793ZM0.0126372 62.0981C-0.163245 62.5564 1.52884 66.1896 3.0911 68.7086C7.01178 75.0298 14.3493 80.1453 20.0054 80.5006C21.2268 80.5772 21.2091 80.3136 19.831 77.9063C14.9032 69.2973 10.2792 65.0596 3.29774 62.7549C0.611367 61.8682 0.137249 61.7735 0.0126372 62.0981ZM139.099 62.5677C132.073 64.9027 127.174 69.5563 122.68 78.1618C121.441 80.5341 121.436 80.7077 122.609 80.5482C129.926 79.5527 137.027 73.4342 140.79 64.8849C142.251 61.5646 142.225 61.5286 139.099 62.5677ZM8.51008 79.2704C8.57091 79.5946 9.08952 80.7981 9.66253 81.9452C13.1593 88.9461 19.3689 94.0566 27.81 96.8806C31.3373 98.0608 31.4885 97.9922 30.4387 95.6889C28.3749 91.1599 23.6353 86.2392 18.1593 82.94C15.2656 81.1966 10.673 79.1078 9.07458 78.808L8.39955 78.6813L8.51008 79.2704ZM131.327 79.4044C122.569 82.9496 115.38 89.2749 112.55 95.9247C111.689 97.9473 111.872 98.0263 114.935 96.9572C123.815 93.8583 130.226 88.0317 133.301 80.2644C134.032 78.4185 133.902 78.3618 131.327 79.4044ZM29.2505 80.7576C29.0061 81.0018 29.1505 84.168 29.4997 86.2249C30.4507 91.8259 32.8253 96.3578 36.9594 100.463C38.8534 102.343 42.6384 104.973 43.4505 104.973C43.7959 104.973 43.7961 104.958 43.473 102.657C42.1829 93.4665 37.9726 86.3998 30.885 81.5289C29.5515 80.6123 29.4455 80.5625 29.2505 80.7576ZM112.105 81.6127C105.251 86.5171 100.862 94.5613 100.108 103.604C99.9691 105.269 99.9985 105.279 101.772 104.186C106.456 101.297 110.427 96.4103 112.287 91.2433C113.565 87.6956 114.448 80.9493 113.669 80.6932C113.565 80.6586 112.861 81.0724 112.105 81.6127ZM45.9124 97.6634C45.7641 97.9034 46.4828 99.6429 47.3724 101.198C49.9639 105.727 54.2515 109.466 60.178 112.364C63.4688 113.973 68.5814 115.812 68.8942 115.499C69.2256 115.167 67.4988 111.878 65.8321 109.666C61.9264 104.483 54.9173 99.9234 47.9112 98.0084C47.1906 97.8114 46.4708 97.6133 46.3116 97.5681C46.1524 97.5228 45.9727 97.5657 45.9124 97.6634ZM96.0674 97.9494C92.2344 99.081 86.4818 102.047 84.0736 104.133C80.5855 107.155 78.4004 109.823 76.7349 113.094C75.9389 114.658 75.6824 115.575 76.0414 115.575C76.8094 115.575 81.3042 113.831 83.9575 112.504C90.4829 109.24 94.8296 104.996 97.3036 99.4738C98.2097 97.4508 98.1221 97.3429 96.0674 97.9494ZM15.7522 97.8733C13.6527 98.032 11.7868 98.3504 11.649 98.5735C11.4966 98.82 12.489 99.8131 14.0723 100.999C18.7604 104.509 25.5264 106.405 33.4795 106.436C39.7694 106.461 40.2191 106.284 38.3023 104.53C34.1114 100.696 28.1357 98.3375 21.3954 97.8575C18.8242 97.6743 18.3687 97.6755 15.7522 97.8733ZM121.855 97.7779C116.663 98.2909 114.134 98.9608 110.511 100.782C107.922 102.084 104.041 105.118 104.041 105.84C104.041 106.289 105.816 106.459 110.124 106.421C116.398 106.367 121.938 104.987 126.308 102.39C128.644 101.002 130.901 98.9157 130.5 98.5153C130.083 98.0984 123.926 97.5733 121.855 97.7779ZM35.6754 108.125C32.3566 108.551 26.2021 110.785 26.0394 111.622C25.9979 111.837 26.585 112.095 28.6693 112.778C38.6252 116.043 47.5156 116.23 52.7275 113.284C53.8432 112.654 53.8601 112.441 52.8503 111.746C48.5421 108.782 41.735 107.347 35.6754 108.125ZM100.652 108.107C97.1522 108.761 96.1854 109.072 93.6132 110.376C91.3754 111.511 90.3717 112.248 90.5245 112.647C90.6804 113.053 92.8629 114.12 94.5228 114.601C99.6064 116.074 107.256 115.327 114.869 112.614C116.445 112.052 116.907 111.817 116.867 111.6C116.748 110.952 112.14 109.049 108.994 108.348C107.549 108.026 101.951 107.864 100.652 108.107ZM53.1185 115.344C47.3431 115.757 43.0327 117.2 40.3672 119.614L39.6493 120.264L40.0339 120.593C41.0459 121.457 45.4862 122.18 49.7717 122.178C54.7797 122.176 58.5469 121.493 64.0677 119.584C67.8742 118.268 69.1909 118.217 70.1968 119.348C70.4963 119.684 70.4144 119.783 66.8078 123.428C64.7751 125.482 62.6622 127.537 62.1125 127.994C61.5628 128.451 61.1132 128.92 61.1132 129.035C61.1132 129.34 61.8681 130 62.2175 130C63.4325 130 65.741 127.797 67.4988 124.96C69.2693 122.103 71.1096 120.441 72.5036 120.441C73.7904 120.441 75.6481 122.228 77.293 125.048C79.4572 128.758 81.9198 130.728 82.9813 129.598C83.5211 129.023 83.5142 129.01 81.8384 127.478C81.0021 126.714 79.5657 125.268 78.6467 124.264C77.7276 123.261 76.4175 121.867 75.7356 121.166C74.329 119.722 74.2817 119.574 75.0491 119.028C76.0818 118.293 77.1918 118.369 79.8832 119.359C85.7403 121.514 89.1346 122.179 94.2795 122.179C98.3394 122.179 103.346 121.269 103.651 120.475C103.877 119.886 101.222 117.954 98.8222 116.962C92.497 114.349 84.0314 114.803 74.5014 118.267C73.0732 118.786 72.2758 118.993 72.0856 118.895C71.7245 118.709 68.0124 117.462 66.414 116.989C62.4608 115.821 56.6004 115.096 53.1185 115.344Z" fill="#A08961"/>
<path d="M42.4167 53.8885H41.6427C41.4459 53.3386 41.1064 52.782 40.6244 52.2185C40.1424 51.655 39.6638 51.3223 39.1885 51.2205C38.9849 51.173 38.6997 51.1458 38.3331 51.139C37.9733 51.1255 37.6746 51.1187 37.437 51.1187H35.3392V56.6992H36.826C37.1994 56.6992 37.5388 56.655 37.8443 56.5668C38.1498 56.4785 38.4282 56.3088 38.6794 56.0576C38.8355 55.9015 38.9917 55.6265 39.1478 55.2328C39.3107 54.839 39.416 54.4962 39.4635 54.2042H40.2374V60.2328H39.4635C39.4228 59.9477 39.3175 59.5913 39.1478 59.1636C38.9849 58.7291 38.8287 58.4303 38.6794 58.2674C38.4553 58.023 38.1906 57.8567 37.8851 57.7684C37.5796 57.6734 37.2265 57.6259 36.826 57.6259H35.3392V61.7909C35.3392 62.2254 35.3698 62.5716 35.4309 62.8296C35.4988 63.0808 35.621 63.2743 35.7975 63.41C35.9672 63.539 36.198 63.6239 36.4899 63.6646C36.7887 63.7054 37.1926 63.7257 37.7018 63.7257C37.9394 63.7257 38.2245 63.7223 38.5572 63.7155C38.8898 63.7087 39.1818 63.6884 39.4329 63.6544C39.7181 63.6205 39.9828 63.5696 40.2273 63.5017C40.4784 63.4338 40.6651 63.3354 40.7873 63.2064C41.1132 62.8737 41.4798 62.3679 41.8871 61.689C42.2945 61.0034 42.5626 60.4908 42.6916 60.1513H43.435L43.1601 64.6524H29.606V63.8581C29.796 63.8445 30.054 63.8174 30.3799 63.7766C30.7058 63.7359 30.9366 63.6884 31.0724 63.6341C31.3303 63.5254 31.5035 63.3897 31.5917 63.2267C31.68 63.057 31.7241 62.8432 31.7241 62.5852V52.3916C31.7241 52.1472 31.6868 51.9469 31.6121 51.7908C31.5374 51.6278 31.3575 51.4819 31.0724 51.3529C30.8959 51.2714 30.6481 51.1967 30.329 51.1288C30.0099 51.061 29.7689 51.0168 29.606 50.9965V50.2022H42.4167V53.8885Z" fill="#142839"/>
<path d="M52.1215 64.184C51.687 64.3741 51.2219 64.5438 50.7263 64.6931C50.2307 64.8493 49.6265 64.9274 48.9137 64.9274C47.8546 64.9274 47.0671 64.6694 46.5511 64.1534C46.042 63.6375 45.7874 62.9009 45.7874 61.9436V55.691H43.9544V54.5912H45.8281V51.5056H49.1377V54.5912H51.9891V55.691H49.1581V61.2715C49.1581 62.0658 49.2667 62.6293 49.484 62.962C49.708 63.2946 50.1052 63.461 50.6754 63.461C50.8587 63.461 51.1133 63.4474 51.4392 63.4202C51.765 63.3931 51.9925 63.3625 52.1215 63.3286V64.184Z" fill="#142839"/>
<path d="M64.4739 64.4386C64.1752 64.5675 63.8222 64.6864 63.4149 64.795C63.0075 64.9036 62.5764 64.9579 62.1216 64.9579C61.2865 64.9579 60.6721 64.8357 60.2784 64.5913C59.8846 64.3401 59.6165 63.9837 59.4739 63.5221H59.4128C59.182 63.7529 58.9579 63.9498 58.7407 64.1127C58.5302 64.2756 58.3028 64.4148 58.0584 64.5302C57.7393 64.6796 57.4304 64.7882 57.1317 64.8561C56.8398 64.9308 56.4291 64.9681 55.8995 64.9681C55.112 64.9681 54.4399 64.7373 53.8832 64.2756C53.3265 63.8072 53.0482 63.1894 53.0482 62.4222C53.0482 61.981 53.1093 61.6076 53.2315 61.3021C53.3537 60.9898 53.5268 60.7148 53.7508 60.4772C53.9545 60.26 54.1887 60.0801 54.4535 59.9375C54.725 59.7949 55.0203 59.6625 55.3394 59.5403C55.9504 59.3163 56.6836 59.0855 57.539 58.8479C58.3944 58.6035 59.019 58.3862 59.4128 58.1961V57.2185C59.4128 57.0488 59.3992 56.8248 59.3721 56.5464C59.3449 56.2681 59.2872 56.0339 59.1989 55.8438C59.1039 55.6265 58.9545 55.4432 58.7509 55.2939C58.5472 55.1445 58.279 55.0698 57.9464 55.0698C57.6477 55.0698 57.3965 55.114 57.1928 55.2022C56.9959 55.2837 56.8364 55.3685 56.7142 55.4568C56.7346 55.5926 56.7923 55.7996 56.8873 56.078C56.9823 56.3563 57.0299 56.6245 57.0299 56.8825C57.0299 56.9979 56.9993 57.1438 56.9382 57.3204C56.8771 57.4901 56.7889 57.6259 56.6735 57.7277C56.5173 57.8635 56.3408 57.9687 56.1439 58.0434C55.9538 58.1181 55.6585 58.1554 55.258 58.1554C54.6877 58.1554 54.2566 58.0196 53.9647 57.7481C53.6727 57.4697 53.5268 57.1099 53.5268 56.6686C53.5268 56.2884 53.6761 55.949 53.9748 55.6503C54.2804 55.3448 54.6503 55.0936 55.0848 54.8967C55.5125 54.693 56.0047 54.5369 56.5614 54.4283C57.1181 54.3129 57.6341 54.2552 58.1093 54.2552C58.7678 54.2552 59.3721 54.2959 59.922 54.3774C60.4719 54.452 60.9675 54.6116 61.4087 54.856C61.8297 55.0936 62.1623 55.4398 62.4067 55.8947C62.6579 56.3428 62.7835 56.93 62.7835 57.6564C62.7835 58.4236 62.7665 59.3333 62.7326 60.3856C62.7054 61.4378 62.6918 62.1303 62.6918 62.463C62.6918 62.7685 62.736 63.0095 62.8242 63.186C62.9193 63.3625 63.0618 63.4949 63.2519 63.5832C63.3673 63.6375 63.5472 63.6714 63.7917 63.685C64.0428 63.6918 64.2703 63.6952 64.4739 63.6952V64.4386ZM59.4128 59.133C59.0326 59.262 58.6558 59.4113 58.2824 59.5811C57.909 59.744 57.6035 59.9171 57.3659 60.1004C57.1147 60.2905 56.9179 60.5349 56.7753 60.8336C56.6327 61.1256 56.5614 61.4718 56.5614 61.8723C56.5614 62.4019 56.6802 62.7855 56.9179 63.0231C57.1623 63.2607 57.461 63.3795 57.814 63.3795C58.1874 63.3795 58.4929 63.3048 58.7305 63.1554C58.9749 62.9993 59.1888 62.8092 59.3721 62.5852L59.4128 59.133Z" fill="#142839"/>
<path d="M78.4252 64.4386L73.4048 64.7339L73.252 64.5913V63.6544L73.1808 63.6341C72.8481 63.9939 72.3966 64.3096 71.8264 64.5811C71.2629 64.8459 70.6926 64.9783 70.1155 64.9783C68.7442 64.9783 67.6138 64.4691 66.7245 63.4508C65.8351 62.4324 65.3904 61.1154 65.3904 59.4996C65.3904 58.0671 65.886 56.8383 66.8772 55.8132C67.8752 54.7881 69.0802 54.2755 70.4923 54.2755C71.049 54.2755 71.5718 54.34 72.0606 54.469C72.5494 54.5912 72.9397 54.7372 73.2317 54.9069V51.5769C73.2317 51.3257 73.1808 51.0915 73.0789 50.8743C72.9771 50.6502 72.8413 50.4771 72.6716 50.3549C72.4611 50.2056 72.1964 50.1003 71.8773 50.0392C71.565 49.9713 71.2493 49.9238 70.9302 49.8967V49.1533L76.4293 48.8885L76.582 49.0514V62.4019C76.582 62.6599 76.6227 62.8771 76.7042 63.0536C76.7925 63.2301 76.9316 63.3693 77.1217 63.4711C77.2643 63.5458 77.4714 63.6001 77.7429 63.6341C78.0213 63.668 78.2487 63.6884 78.4252 63.6952V64.4386ZM73.2317 62.6259V56.8723C73.1841 56.7161 73.1163 56.543 73.028 56.3529C72.9465 56.1628 72.8311 55.9829 72.6818 55.8132C72.546 55.6706 72.3627 55.545 72.1319 55.4364C71.9078 55.3278 71.6532 55.2735 71.3681 55.2735C70.6892 55.2735 70.1325 55.6571 69.698 56.4242C69.2635 57.1914 69.0463 58.2742 69.0463 59.6727C69.0463 60.2226 69.0836 60.7182 69.1583 61.1595C69.2398 61.594 69.3789 61.9911 69.5758 62.351C69.7727 62.7108 70.0239 62.9925 70.3294 63.1962C70.6417 63.3999 71.0151 63.5017 71.4496 63.5017C71.8637 63.5017 72.2065 63.4236 72.4781 63.2675C72.7497 63.1045 73.0008 62.8907 73.2317 62.6259Z" fill="#142839"/>
<path d="M89.4844 55.7521C89.9868 56.2205 90.3703 56.7806 90.6351 57.4324C90.8999 58.0841 91.0323 58.7902 91.0323 59.5505C91.0323 60.3041 90.8999 61.0169 90.6351 61.689C90.3771 62.3544 89.997 62.9246 89.4946 63.3999C88.9582 63.909 88.3167 64.2994 87.5699 64.5709C86.8299 64.8425 85.9813 64.9783 85.0241 64.9783C84.1958 64.9783 83.432 64.8595 82.7328 64.6219C82.0403 64.3842 81.4259 64.0278 80.8896 63.5526C80.3736 63.0977 79.9663 62.5377 79.6676 61.8723C79.3689 61.2002 79.2195 60.4501 79.2195 59.6218C79.2195 58.8071 79.3485 58.0841 79.6065 57.4527C79.8713 56.8146 80.265 56.2477 80.7878 55.7521C81.2901 55.2769 81.9079 54.9103 82.6411 54.6523C83.3811 54.3875 84.206 54.2552 85.1157 54.2552C86.0662 54.2552 86.9012 54.3875 87.6208 54.6523C88.3472 54.9103 88.9684 55.2769 89.4844 55.7521ZM86.8774 62.8092C87.0268 62.429 87.1354 61.9674 87.2033 61.4243C87.278 60.8812 87.3153 60.2498 87.3153 59.5302C87.3153 59.0549 87.2814 58.5118 87.2135 57.9008C87.1456 57.2898 87.0438 56.8078 86.908 56.4548C86.745 56.0271 86.5176 55.691 86.2257 55.4466C85.9406 55.2022 85.5774 55.08 85.1361 55.08C84.6541 55.08 84.2671 55.2124 83.9752 55.4772C83.69 55.7419 83.4694 56.0848 83.3132 56.5057C83.1707 56.8927 83.0722 57.3475 83.0179 57.8703C82.9636 58.3862 82.9365 58.9259 82.9365 59.4894C82.9365 60.2294 82.9602 60.8438 83.0077 61.3326C83.0553 61.8146 83.1707 62.3 83.354 62.7888C83.5101 63.2098 83.7342 63.5424 84.0261 63.7868C84.318 64.0312 84.688 64.1534 85.1361 64.1534C85.5434 64.1534 85.893 64.0414 86.185 63.8174C86.4769 63.5865 86.7077 63.2505 86.8774 62.8092Z" fill="#142839"/>
<path d="M102.743 55.7521C103.246 56.2205 103.629 56.7806 103.894 57.4324C104.159 58.0841 104.291 58.7902 104.291 59.5505C104.291 60.3041 104.159 61.0169 103.894 61.689C103.636 62.3544 103.256 62.9246 102.753 63.3999C102.217 63.909 101.575 64.2994 100.829 64.5709C100.089 64.8425 99.2401 64.9783 98.2829 64.9783C97.4546 64.9783 96.6908 64.8595 95.9916 64.6219C95.2991 64.3842 94.6847 64.0278 94.1484 63.5526C93.6324 63.0977 93.2251 62.5377 92.9264 61.8723C92.6277 61.2002 92.4783 60.4501 92.4783 59.6218C92.4783 58.8071 92.6073 58.0841 92.8653 57.4527C93.13 56.8146 93.5238 56.2477 94.0466 55.7521C94.5489 55.2769 95.1667 54.9103 95.8999 54.6523C96.6399 54.3875 97.4648 54.2552 98.3745 54.2552C99.325 54.2552 100.16 54.3875 100.88 54.6523C101.606 54.9103 102.227 55.2769 102.743 55.7521ZM100.136 62.8092C100.286 62.429 100.394 61.9674 100.462 61.4243C100.537 60.8812 100.574 60.2498 100.574 59.5302C100.574 59.0549 100.54 58.5118 100.472 57.9008C100.404 57.2898 100.303 56.8078 100.167 56.4548C100.004 56.0271 99.7764 55.691 99.4845 55.4466C99.1994 55.2022 98.8362 55.08 98.3949 55.08C97.9128 55.08 97.5259 55.2124 97.234 55.4772C96.9488 55.7419 96.7282 56.0848 96.572 56.5057C96.4295 56.8927 96.331 57.3475 96.2767 57.8703C96.2224 58.3862 96.1953 58.9259 96.1953 59.4894C96.1953 60.2294 96.219 60.8438 96.2665 61.3326C96.3141 61.8146 96.4295 62.3 96.6128 62.7888C96.7689 63.2098 96.993 63.5424 97.2849 63.7868C97.5768 64.0312 97.9468 64.1534 98.3949 64.1534C98.8022 64.1534 99.1518 64.0414 99.4438 63.8174C99.7357 63.5865 99.9665 63.2505 100.136 62.8092Z" fill="#142839"/>
<path d="M115.747 56.414C115.747 56.93 115.588 57.3849 115.269 57.7786C114.95 58.1656 114.529 58.3591 114.006 58.3591C113.51 58.3591 113.09 58.2335 112.743 57.9823C112.404 57.7311 112.234 57.3611 112.234 56.8723C112.234 56.6347 112.251 56.4514 112.285 56.3224C112.319 56.1866 112.35 56.061 112.377 55.9456C112.064 55.9592 111.735 56.0678 111.389 56.2715C111.043 56.4751 110.737 56.7467 110.472 57.0861V62.6768C110.472 62.9144 110.51 63.1113 110.584 63.2675C110.659 63.4236 110.785 63.5458 110.961 63.6341C111.111 63.7087 111.352 63.7732 111.684 63.8276C112.024 63.8751 112.268 63.9022 112.417 63.909V64.6524H105.605V63.909C105.774 63.8954 105.944 63.8785 106.114 63.8581C106.29 63.8309 106.44 63.797 106.562 63.7563C106.779 63.6816 106.929 63.5662 107.01 63.41C107.091 63.2539 107.132 63.0502 107.132 62.799V56.8723C107.132 56.6279 107.075 56.4106 106.959 56.2205C106.844 56.0237 106.705 55.8675 106.542 55.7521C106.419 55.6706 106.263 55.6028 106.073 55.5484C105.89 55.4941 105.686 55.4568 105.462 55.4364V54.693L110.32 54.4283L110.472 54.581V56.0576H110.513C110.982 55.5145 111.477 55.0902 112 54.7847C112.529 54.4724 113.079 54.3163 113.65 54.3163C114.281 54.3163 114.787 54.5131 115.167 54.9069C115.554 55.2939 115.747 55.7962 115.747 56.414Z" fill="#142839"/>
<path d="M70.6592 80.2276C70.5325 80.2412 70.3514 80.2661 70.1161 80.3023C69.8807 80.3385 69.668 80.4267 69.4779 80.567C69.315 80.6892 69.1973 80.8997 69.1249 81.1984C69.0525 81.4926 69.0163 81.9271 69.0163 82.5019V89.3859H67.835L62.4989 81.9384V86.4598C62.4989 87.0211 62.5351 87.4488 62.6075 87.7429C62.6845 88.0326 62.8067 88.2453 62.9741 88.3811C63.0963 88.4807 63.291 88.5689 63.558 88.6459C63.825 88.7228 64.0377 88.7749 64.1961 88.802V89.3316H60.0549V88.802C60.2314 88.7884 60.4328 88.7568 60.6591 88.707C60.8899 88.6527 61.0823 88.5712 61.2362 88.4626C61.4127 88.3313 61.5326 88.1344 61.596 87.8719C61.6639 87.6049 61.6978 87.1591 61.6978 86.5345V81.9723C61.6978 81.746 61.6616 81.5333 61.5892 81.3342C61.5213 81.1305 61.4127 80.9563 61.2633 80.8114C61.1049 80.6576 60.9216 80.5376 60.7134 80.4516C60.5098 80.3611 60.2767 80.291 60.0142 80.2412V79.6981H63.6123L68.2152 86.2154V82.5698C68.2152 81.9904 68.1767 81.5605 68.0998 81.2799C68.0228 80.9947 67.9006 80.7843 67.7332 80.6485C67.6019 80.5399 67.4073 80.4494 67.1493 80.3769C66.8914 80.3045 66.6832 80.2547 66.5248 80.2276V79.6981H70.6592V80.2276ZM76.81 83.2894C76.81 84.1765 76.5158 84.8871 75.9274 85.4211C75.3391 85.9507 74.5447 86.2154 73.5445 86.2154C72.6031 86.2154 71.8405 85.9507 71.2566 85.4211C70.6728 84.8871 70.3809 84.1878 70.3809 83.3233C70.3809 82.477 70.666 81.7845 71.2363 81.2459C71.8065 80.7073 72.5918 80.438 73.592 80.438C74.5832 80.438 75.3662 80.6983 75.941 81.2188C76.5203 81.7393 76.81 82.4295 76.81 83.2894ZM76.3619 88.3539H70.8289V87.5936H76.3619V88.3539ZM74.495 84.9934C74.5719 84.7762 74.6262 84.534 74.6579 84.267C74.6896 84 74.7054 83.6696 74.7054 83.2758C74.7054 82.9816 74.6918 82.6965 74.6647 82.4204C74.6421 82.1398 74.59 81.8909 74.5085 81.6736C74.4316 81.4609 74.3184 81.2889 74.1691 81.1577C74.0243 81.0264 73.8342 80.9608 73.5988 80.9608C73.3589 80.9608 73.1643 81.0287 73.015 81.1645C72.8656 81.3002 72.7502 81.479 72.6687 81.7008C72.5963 81.8999 72.5465 82.1353 72.5194 82.4068C72.4968 82.6739 72.4854 82.9567 72.4854 83.2555C72.4854 83.6447 72.4968 83.9683 72.5194 84.2263C72.542 84.4797 72.5986 84.7309 72.6891 84.9798C72.7706 85.2107 72.8837 85.3872 73.0286 85.5094C73.1779 85.6316 73.368 85.6927 73.5988 85.6927C73.8251 85.6927 74.0107 85.6293 74.1555 85.5026C74.3049 85.3759 74.418 85.2061 74.495 84.9934Z" fill="#142839"/>
<path d="M78.2968 88.8156C79.0798 88.7703 79.5572 88.6821 79.7292 88.5508C79.9057 88.415 79.994 88.2159 79.994 87.9534V81.3342H78.3579V80.6824H78.6498C79.7496 80.6824 80.5869 80.2842 81.1617 79.4876H82.3566C82.3113 80.3158 82.2887 81.0151 82.2887 81.5854V87.8855C82.2887 88.1887 82.4086 88.4128 82.6485 88.5576C82.8883 88.6979 83.2889 88.7839 83.8501 88.8156V89.3316H78.2968V88.8156Z" fill="#142839"/>
</g>
<defs>
<clipPath id="clip0_28_47">
<rect width="141.726" height="130" fill="white"/>
</clipPath>
</defs>
</svg>
