<svg width="130" height="130" viewBox="0 0 130 130" fill="none" xmlns="http://www.w3.org/2000/svg">
<path d="M49.0403 130L65.2903 123.036L80.96 129.42V110.848L80.3796 91.6963L64.71 92.2766H48.46L49.0403 111.428V130Z" fill="url(#paint0_linear_47_165)"/>
<path opacity="0.48" d="M49.0403 130L65.2903 123.036L80.96 129.42V110.848L80.3796 91.6963L64.71 92.2766H48.46L49.0403 111.428V130Z" fill="#FF3C38"/>
<path d="M121.005 66.7411L114.04 56.875L121.005 47.0089L111.139 40.0447L114.04 28.4375L102.433 24.9554L101.853 12.7679L89.6653 13.9286L84.4421 2.90179L73.4153 8.125L65.2903 0L56.5849 8.125L45.5581 2.90179L40.3349 13.9286L28.7278 12.7679L27.567 24.9554L15.9599 28.4375L18.8617 40.0447L8.99561 47.0089L15.9599 56.875L8.99561 66.7411L18.8617 73.125L15.9599 85.3125L27.567 88.2143L28.7278 100.402L40.3349 99.2411L45.5581 110.268L56.5849 105.045L65.2903 113.75L73.4153 105.045L84.4421 110.268L89.6653 99.2411L101.853 100.402L102.433 88.2143L114.04 85.3125L111.139 73.125L121.005 66.7411Z" fill="#E5D0A0"/>
<path d="M28.7278 13.3482L40.3349 14.5089L45.5581 3.48214L56.5849 8.70536L65.2903 0L73.4153 8.70536L84.4421 3.48214L89.6653 14.5089L101.272 13.3482L102.433 24.9554L114.04 28.4375L111.139 40.0447L121.005 47.0089L114.04 56.875L121.005 66.1607L111.139 73.125L114.04 84.7322L102.433 88.2143L101.272 99.8215L89.6653 98.6607L84.4421 109.688L73.4153 104.464L65.2903 113.17L56.5849 104.464L45.5581 109.688L40.3349 98.6607L28.7278 99.8215L27.567 88.2143L15.9599 84.7322L18.8617 73.125L8.99561 66.1607L15.9599 56.875L8.99561 47.0089L18.8617 40.0447L15.9599 28.4375L27.567 24.9554L28.7278 13.3482Z" fill="#E7D3A2"/>
<path d="M28.7282 13.3482L40.9157 14.5089L45.5586 3.48214L56.5854 8.70536L65.2907 0L73.4157 8.70536L84.4425 3.48214L89.0854 14.5089L101.273 13.3482L102.434 25.5357L114.041 28.4375L110.559 40.0447L120.425 47.0089L113.46 56.875L120.425 66.1607L110.559 73.125L114.041 84.7322L102.434 87.634L101.273 99.8215L89.0854 98.6607L84.4425 109.688L73.4157 104.464L65.2907 113.17L56.5854 104.464L45.5586 109.688L40.9157 98.6607L28.7282 99.8215L27.5675 87.634L15.9603 84.7322L19.4425 73.125L9.57642 66.1607L16.5407 56.875L9.57642 47.0089L19.4425 40.0447L15.9603 28.4375L27.5675 25.5357L28.7282 13.3482Z" fill="#E9D6A4"/>
<path d="M28.7282 13.9288L40.9157 14.5091L45.5586 4.06271L56.5854 8.70557L65.2907 0.580566L73.4157 8.70557L84.4425 4.06271L89.0854 14.5091L101.273 13.9288L101.853 25.5359L113.46 28.4377L110.559 40.0449L120.425 47.0092L113.46 56.8752L120.425 66.1609L110.559 73.1252L113.46 84.7324L101.853 87.6342L101.273 99.8217L89.0854 98.661L84.4425 109.107L73.4157 104.465L65.2907 112.59L56.5854 104.465L45.5586 109.107L40.9157 98.661L28.7282 99.8217L28.1479 87.6342L16.5407 84.7324L19.4425 73.1252L9.57642 66.1609L16.5407 56.8752L9.57642 47.0092L19.4425 40.0449L16.5407 28.4377L28.1479 25.5359L28.7282 13.9288Z" fill="#ECD9A5"/>
<path d="M29.308 13.9288L40.9152 15.0895L46.1384 4.06271L56.5848 9.28593L65.2902 0.580566L73.4152 9.28593L83.8616 4.06271L89.0848 15.0895L100.692 13.9288L101.853 25.5359L113.46 28.4377L110.558 40.0449L119.844 47.0092L113.46 56.8752L119.844 66.1609L110.558 73.1252L113.46 84.7324L101.853 87.6342L100.692 99.2413L89.0848 98.0806L83.8616 109.107L73.4152 103.884L65.2902 112.59L56.5848 103.884L46.1384 109.107L40.9152 98.0806L29.308 99.2413L28.1473 87.6342L16.5402 84.7324L20.0223 73.1252L10.1562 66.1609L17.1205 56.8752L10.1562 47.0092L20.0223 40.0449L16.5402 28.4377L28.1473 25.5359L29.308 13.9288Z" fill="#EEDCA7"/>
<path d="M29.308 13.9285L40.9152 15.0892L46.1384 4.64279L56.5848 9.28565L65.2902 1.16064L73.4152 9.28565L83.8616 4.64279L89.0848 15.0892L100.692 13.9285L101.853 25.5357L112.88 29.0178L109.978 40.0446L119.844 47.0089L112.88 56.8749L119.844 66.1607L109.978 73.1249L112.88 84.1517L101.853 87.6339L100.692 99.241L89.0848 98.0803L83.8616 108.527L73.4152 103.884L65.2902 112.009L56.5848 103.884L46.1384 108.527L40.9152 98.0803L29.308 99.241L28.1473 87.6339L17.1205 84.1517L20.0223 73.1249L10.1562 66.1607L17.1205 56.8749L10.1562 47.0089L20.0223 40.0446L17.1205 29.0178L28.1473 25.5357L29.308 13.9285Z" fill="#F0DFA9"/>
<path d="M29.3085 14.5089L40.9156 15.0892L46.1389 4.64279L56.5853 9.866L65.2906 1.16064L73.4156 9.866L83.8621 4.64279L89.0853 15.0892L100.692 14.5089L101.853 26.116L112.88 29.0178L109.978 40.0446L119.264 47.0089L112.88 56.8749L119.264 66.1607L109.978 73.1249L112.88 84.1517L101.853 87.0535L100.692 98.6607L89.0853 98.0803L83.8621 108.527L73.4156 103.304L65.2906 112.009L56.5853 103.304L46.1389 108.527L40.9156 98.0803L29.3085 98.6607L28.7281 87.0535L17.121 84.1517L20.0228 73.1249L10.7371 66.1607L17.121 56.8749L10.7371 47.0089L20.0228 40.0446L17.121 29.0178L28.7281 26.116L29.3085 14.5089Z" fill="#F2E2AB"/>
<path d="M29.8889 14.5091L41.496 15.6698L46.1389 4.643L56.5853 9.86621L65.2906 1.74121L73.4156 9.86621L83.8621 4.643L88.5049 15.6698L100.112 14.5091L101.273 26.1162L112.88 29.018L109.398 40.6252L119.264 47.0091L112.3 56.8752L119.264 66.1609L109.398 73.1252L112.88 84.152L101.273 87.0537L100.112 98.6609L88.5049 97.5002L83.8621 108.527L73.4156 103.304L65.2906 111.429L56.5853 103.304L46.1389 108.527L41.496 97.5002L29.8889 98.6609L28.7281 87.0537L17.121 84.152L20.6031 73.1252L10.7371 66.1609L17.7013 56.8752L10.7371 47.0091L20.6031 40.6252L17.121 29.018L28.7281 26.1162L29.8889 14.5091Z" fill="#F4E5AD"/>
<path d="M29.8883 14.5091L41.4955 15.6698L46.1383 5.22336L56.5848 9.86621L65.2901 1.74121L73.4151 9.86621L83.8615 5.22336L88.5044 15.6698L100.112 14.5091L101.272 26.1162L112.299 29.018L109.397 40.6252L118.683 47.0091L112.299 56.8752L118.683 66.1609L109.397 72.5448L112.299 84.152L101.272 87.0537L100.112 98.6609L88.5044 97.5002L83.8615 107.947L73.4151 103.304L65.2901 111.429L56.5848 103.304L46.1383 107.947L41.4955 97.5002L29.8883 98.6609L28.7276 87.0537L17.7008 84.152L20.6026 72.5448L11.3169 66.1609L17.7008 56.8752L11.3169 47.0091L20.6026 40.6252L17.7008 29.018L28.7276 26.1162L29.8883 14.5091Z" fill="#F6E8AF"/>
<path d="M29.8883 15.0891L41.4955 15.6695L46.1383 5.22308L56.5848 10.4463L65.2901 2.32129L73.4151 10.4463L83.8615 5.22308L88.5044 15.6695L100.112 15.0891L101.272 26.6963L112.299 29.5981L109.397 40.6249L118.683 47.0088L112.299 56.8749L118.683 66.1606L109.397 72.5445L112.299 83.5713L101.272 87.0534L100.112 98.0802L88.5044 97.4999L83.8615 107.946L73.4151 102.723L65.2901 110.848L56.5848 102.723L46.1383 107.946L41.4955 97.4999L29.8883 98.0802L29.308 87.0534L17.7008 83.5713L20.6026 72.5445L11.3169 66.1606L18.2812 56.8749L11.3169 47.0088L20.6026 40.6249L17.7008 29.5981L29.308 26.6963L29.8883 15.0891Z" fill="#F9EBB0"/>
<path d="M30.4689 15.0891L41.4957 16.2499L46.7189 5.80343L57.1653 10.4463L65.2903 2.32129L73.4153 10.4463L83.2814 5.80343L88.5046 16.2499L100.112 15.0891L100.692 26.6963L111.719 29.5981L108.817 40.6249L118.103 47.0088L111.719 56.8749L118.103 66.1606L108.817 72.5445L111.719 83.5713L100.692 86.4731L100.112 98.0802L88.5046 96.9195L83.2814 107.366L73.4153 102.723L65.2903 110.848L57.1653 102.723L46.7189 107.366L41.4957 96.9195L30.4689 98.0802L29.3082 86.4731L18.2814 83.5713L21.1832 72.5445L11.8975 66.1606L18.2814 56.8749L11.8975 47.0088L21.1832 40.6249L18.2814 29.5981L29.3082 26.6963L30.4689 15.0891Z" fill="#FBEEB2"/>
<path d="M56.7718 102.723L46.3253 107.366L41.1021 96.9197L30.0753 98.0805L28.9146 86.4733L17.8878 83.5715L20.7896 72.5447L11.5039 66.1608L17.8878 56.8751L11.5039 47.009L20.7896 40.6251L17.8878 29.5983L28.9146 26.6965L30.0753 15.0894L41.1021 16.2501L46.3253 5.80364L56.7718 11.0269L64.8968 2.90186L72.4414 11.0269L82.8878 5.80364L88.1111 16.2501L99.1379 15.0894L100.299 26.6965L111.325 29.5983L108.424 40.6251L117.709 47.009L111.325 56.8751L117.709 66.1608L108.424 72.5447L111.325 83.5715L100.299 86.4733L99.1379 98.0805L88.1111 96.9197L82.8878 107.366L72.4414 102.723L64.8968 110.268L56.7718 102.723Z" fill="#F9F9F9"/>
<path d="M58.3248 94.9141H56.4848V86.4041H52.8508L52.7358 88.1521C52.6131 89.5781 52.4291 90.7664 52.1838 91.7171C51.9538 92.6524 51.6471 93.3577 51.2638 93.8331C50.8958 94.2931 50.5048 94.6151 50.0908 94.7991C49.6768 94.9677 49.1708 95.0521 48.5728 95.0521L48.4348 93.2581C48.6034 93.2734 48.7798 93.2504 48.9638 93.1891C49.1478 93.1124 49.3471 92.9591 49.5618 92.7291C49.7918 92.4991 49.9911 92.1924 50.1598 91.8091C50.3438 91.4257 50.5048 90.8891 50.6428 90.1991C50.7961 89.4937 50.8958 88.6887 50.9418 87.7841L51.1258 84.5641H58.3248V94.9141ZM69.807 92.3381L70.382 93.7871C69.3853 94.6917 68.0897 95.1441 66.495 95.1441C64.8083 95.1441 63.4667 94.6534 62.47 93.6721C61.458 92.6907 60.952 91.3797 60.952 89.7391C60.952 88.1904 61.4273 86.9024 62.378 85.8751C63.3133 84.8477 64.6167 84.3341 66.288 84.3341C67.668 84.3341 68.8103 84.7787 69.715 85.6681C70.635 86.5421 71.095 87.6767 71.095 89.0721C71.095 89.5167 71.0567 89.9307 70.98 90.3141H63.022C63.0987 91.2801 63.459 92.0391 64.103 92.5911C64.7623 93.1431 65.6057 93.4191 66.633 93.4191C67.9823 93.4191 69.0403 93.0587 69.807 92.3381ZM66.196 86.0591C65.2913 86.0591 64.54 86.3121 63.942 86.8181C63.3593 87.3241 63.0143 87.9911 62.907 88.8191H69.186C69.14 87.9604 68.8487 87.2857 68.312 86.7951C67.7907 86.3044 67.0853 86.0591 66.196 86.0591ZM75.8731 86.4041H72.0781V84.5641H81.5081V86.4041H77.7131V94.9141H75.8731V86.4041Z" fill="#A08961"/>
<path d="M34.834 35.5H33.389V23.6H40.019V24.96H34.834V35.5ZM39.5778 29.465L39.2208 28.377C39.9801 27.9123 40.8301 27.68 41.7708 27.68C42.8021 27.68 43.5501 27.935 44.0148 28.445C44.4795 28.955 44.7118 29.7427 44.7118 30.808V35.5H43.4198V34.514C42.8191 35.2507 42.0031 35.619 40.9718 35.619C40.2691 35.619 39.7025 35.4093 39.2718 34.99C38.8411 34.5593 38.6258 33.9813 38.6258 33.256C38.6258 32.508 38.8921 31.9187 39.4248 31.488C39.9575 31.046 40.6545 30.825 41.5158 30.825C42.3205 30.825 42.9551 30.9893 43.4198 31.318C43.4198 30.4567 43.3008 29.839 43.0628 29.465C42.8248 29.091 42.3658 28.904 41.6858 28.904C40.9945 28.904 40.2918 29.091 39.5778 29.465ZM41.4478 34.395C42.2071 34.395 42.8645 34.0663 43.4198 33.409V32.44C42.9438 32.1 42.3715 31.93 41.7028 31.93C41.2381 31.93 40.8471 32.0433 40.5298 32.27C40.2238 32.4853 40.0708 32.7913 40.0708 33.188C40.0708 33.562 40.1898 33.8567 40.4278 34.072C40.6771 34.2873 41.0171 34.395 41.4478 34.395ZM48.3491 38.9H46.9891V27.85H48.3491V28.751C48.6211 28.4337 48.9951 28.1787 49.4711 27.986C49.9471 27.782 50.4401 27.68 50.9501 27.68C52.0381 27.68 52.8938 28.0427 53.5171 28.768C54.1631 29.482 54.4861 30.4113 54.4861 31.556C54.4861 32.7233 54.1178 33.7037 53.3811 34.497C52.6558 35.279 51.6981 35.67 50.5081 35.67C49.5901 35.67 48.8705 35.4943 48.3491 35.143V38.9ZM50.5591 28.955C49.6525 28.955 48.9158 29.3063 48.3491 30.009V33.8C48.9498 34.1967 49.6298 34.395 50.3891 34.395C51.1938 34.395 51.8341 34.14 52.3101 33.63C52.7975 33.1087 53.0411 32.4343 53.0411 31.607C53.0411 30.8023 52.8201 30.162 52.3781 29.686C51.9361 29.1987 51.3298 28.955 50.5591 28.955ZM56.8434 29.465L56.4864 28.377C57.2458 27.9123 58.0958 27.68 59.0364 27.68C60.0678 27.68 60.8158 27.935 61.2804 28.445C61.7451 28.955 61.9774 29.7427 61.9774 30.808V35.5H60.6854V34.514C60.0848 35.2507 59.2688 35.619 58.2374 35.619C57.5348 35.619 56.9681 35.4093 56.5374 34.99C56.1068 34.5593 55.8914 33.9813 55.8914 33.256C55.8914 32.508 56.1578 31.9187 56.6904 31.488C57.2231 31.046 57.9201 30.825 58.7814 30.825C59.5861 30.825 60.2208 30.9893 60.6854 31.318C60.6854 30.4567 60.5664 29.839 60.3284 29.465C60.0904 29.091 59.6314 28.904 58.9514 28.904C58.2601 28.904 57.5574 29.091 56.8434 29.465ZM58.7134 34.395C59.4728 34.395 60.1301 34.0663 60.6854 33.409V32.44C60.2094 32.1 59.6371 31.93 58.9684 31.93C58.5038 31.93 58.1128 32.0433 57.7954 32.27C57.4894 32.4853 57.3364 32.7913 57.3364 33.188C57.3364 33.562 57.4554 33.8567 57.6934 34.072C57.9428 34.2873 58.2828 34.395 58.7134 34.395ZM71.2248 35.5H69.8648V32.27H65.6148V35.5H64.2548V27.85H65.6148V30.995H69.8648V27.85H71.2248V35.5ZM75.5204 29.21H72.7154V27.85H79.6854V29.21H76.8804V35.5H75.5204V29.21ZM86.9518 29.805L82.5318 35.5H81.1718V27.85H82.5318V33.545L86.9518 27.85H88.3118V35.5H86.9518V29.805ZM94.1331 27.85H96.5131V35.5H95.1531V32.95H93.6741L91.8041 35.5H90.1551L92.3651 32.61C91.9004 32.508 91.5094 32.2587 91.1921 31.862C90.8747 31.454 90.7161 30.9667 90.7161 30.4C90.7161 29.618 90.9994 29.0003 91.5661 28.547C92.1327 28.0823 92.9884 27.85 94.1331 27.85ZM92.1611 30.434C92.1611 30.7967 92.3027 31.097 92.5861 31.335C92.8694 31.5617 93.2037 31.675 93.5891 31.675H95.1531V29.125H93.9121C93.3341 29.125 92.8977 29.244 92.6031 29.482C92.3084 29.72 92.1611 30.0373 92.1611 30.434Z" fill="#A08961"/>
<path d="M45.7548 56.7769L49.2128 54.3563V78.4141H56.6228V43.8341H51.2876L41.9016 50.6513L45.7548 56.7769ZM84.9012 78.4141V71.4981H72.156C79.8624 65.5701 83.7156 59.3457 83.7156 52.7755C83.7156 50.1573 82.8264 47.9837 80.9986 46.1559C79.2202 44.3281 76.7502 43.4389 73.5392 43.4389C67.6112 43.4389 63.8074 46.6499 62.6712 51.7381L68.8462 54.5539C69.686 52.1827 70.674 50.8489 72.65 50.8489C74.7742 50.8489 75.8116 51.9851 75.8116 54.2575C75.8116 55.9865 75.4164 57.6167 74.0826 59.6421L72.4524 62.1615C72.0078 62.8531 71.2174 63.7917 70.0812 64.9773C68.945 66.1135 68.1546 66.9533 67.71 67.4473C67.2654 67.9413 66.3268 68.8305 64.993 70.1643C63.6592 71.4487 62.8688 72.2391 62.5724 72.4861V78.4141H84.9012Z" fill="#A08961"/>
<defs>
<linearGradient id="paint0_linear_47_165" x1="67.9937" y1="125.448" x2="62.7228" y2="101.258" gradientUnits="userSpaceOnUse">
<stop offset="0.0560477" stop-color="#F05E00"/>
<stop offset="0.3307" stop-color="#D74600"/>
<stop offset="0.9128" stop-color="#960A00"/>
<stop offset="1" stop-color="#8C0000"/>
</linearGradient>
</defs>
</svg>
