<svg width="70" height="70" viewBox="0 0 70 70" fill="none" xmlns="http://www.w3.org/2000/svg">
<circle cx="35" cy="35" r="35" fill="#FF6F55"/>
<g clip-path="url(#clip0_28_900)">
<path d="M33.7179 46.2769C33.7175 47.0029 33.5176 47.7147 33.14 48.3347C32.7624 48.9547 32.2216 49.459 31.5768 49.7924C30.932 50.1259 30.208 50.2757 29.4838 50.2255C28.7596 50.1753 28.0631 49.9269 27.4705 49.5077C26.8779 49.0884 26.4119 48.5143 26.1235 47.8481C25.8351 47.1819 25.7354 46.4493 25.8352 45.7303C25.9351 45.0112 26.2306 44.3335 26.6896 43.771C27.1485 43.2086 27.7533 42.7832 28.4377 42.5412V38.3567C28.4377 38.0066 28.5768 37.6708 28.8243 37.4233C29.0719 37.1757 29.4076 37.0366 29.7577 37.0366C30.1078 37.0366 30.4436 37.1757 30.6911 37.4233C30.9387 37.6708 31.0778 38.0066 31.0778 38.3567V42.5412C31.8502 42.8143 32.5189 43.3202 32.9918 43.9893C33.4646 44.6584 33.7183 45.4576 33.7179 46.2769Z" fill="white"/>
<path d="M23.1574 19.8761C23.1574 18.1256 23.8528 16.4468 25.0906 15.209C26.3284 13.9712 28.0072 13.2758 29.7576 13.2758C31.5081 13.2758 33.1869 13.9712 34.4247 15.209C35.6625 16.4468 36.3579 18.1256 36.3579 19.8761V39.8087C37.6313 41.1084 38.4926 42.7551 38.8339 44.5423C39.1752 46.3295 38.9813 48.1777 38.2764 49.8552C37.5715 51.5326 36.3871 52.9647 34.8717 53.9717C33.3562 54.9787 31.5772 55.5159 29.7576 55.5159C27.9381 55.5159 26.1591 54.9787 24.6436 53.9717C23.1282 52.9647 21.9437 51.5326 21.2389 49.8552C20.534 48.1777 20.3401 46.3295 20.6814 44.5423C21.0227 42.7551 21.884 41.1084 23.1574 39.8087V19.8761ZM29.7576 15.9159C28.7073 15.9159 27.7001 16.3332 26.9574 17.0758C26.2147 17.8185 25.7975 18.8258 25.7975 19.8761V40.9624L25.3566 41.3584C24.3602 42.2495 23.6578 43.4222 23.3424 44.7212C23.027 46.0202 23.1135 47.3844 23.5905 48.6332C24.0674 49.882 24.9123 50.9565 26.0133 51.7146C27.1143 52.4727 28.4196 52.8786 29.7563 52.8786C31.0931 52.8786 32.3983 52.4727 33.4993 51.7146C34.6004 50.9565 35.4452 49.882 35.9222 48.6332C36.3991 47.3844 36.4856 46.0202 36.1702 44.7212C35.8548 43.4222 35.1525 42.2495 34.156 41.3584L33.7178 40.9598V19.8761C33.7178 18.8258 33.3005 17.8185 32.5579 17.0758C31.8152 16.3332 30.8079 15.9159 29.7576 15.9159ZM42.9581 18.556C43.3082 18.556 43.6439 18.6951 43.8915 18.9427C44.139 19.1902 44.2781 19.526 44.2781 19.8761V23.2897L45.9836 21.5816C46.2315 21.3337 46.5677 21.1944 46.9182 21.1944C47.2687 21.1944 47.6049 21.3337 47.8528 21.5816C48.1007 21.8294 48.2399 22.1656 48.2399 22.5161C48.2399 22.8667 48.1007 23.2029 47.8528 23.4507L44.2781 27.0228V32.1102L48.6844 29.5678L49.9913 24.6837C50.0363 24.5162 50.1139 24.3593 50.2197 24.2218C50.3254 24.0843 50.4572 23.969 50.6074 23.8825C50.7577 23.796 50.9236 23.7399 51.0955 23.7174C51.2675 23.695 51.4422 23.7066 51.6096 23.7517C51.7771 23.7968 51.934 23.8744 52.0715 23.9801C52.209 24.0858 52.3242 24.2176 52.4108 24.3679C52.4973 24.5182 52.5534 24.684 52.5759 24.856C52.5983 25.0279 52.5867 25.2026 52.5416 25.3701L51.9159 27.6986L54.8728 25.9931C55.1758 25.8209 55.5347 25.7754 55.8711 25.8667C56.2075 25.9581 56.4941 26.1788 56.6684 26.4806C56.8427 26.7825 56.8905 27.1411 56.8014 27.4781C56.7123 27.8151 56.4935 28.1032 56.1928 28.2795L53.2359 29.985L55.5698 30.6107C55.7372 30.6557 55.8942 30.7333 56.0316 30.8391C56.1691 30.9448 56.2844 31.0765 56.3709 31.2268C56.4575 31.3771 56.5135 31.543 56.536 31.7149C56.5584 31.8869 56.5468 32.0616 56.5017 32.229C56.4566 32.3965 56.379 32.5534 56.2733 32.6909C56.1676 32.8283 56.0358 32.9436 55.8855 33.0302C55.7353 33.1167 55.5694 33.1728 55.3974 33.1952C55.2255 33.2177 55.0508 33.206 54.8833 33.161L50.0045 31.8541L45.5982 34.3965L50.0045 36.9389L54.886 35.6321C55.0545 35.5841 55.2309 35.57 55.4048 35.5909C55.5788 35.6117 55.7469 35.667 55.8993 35.7534C56.0517 35.8399 56.1853 35.9558 56.2924 36.0944C56.3996 36.2331 56.478 36.3917 56.5232 36.5609C56.5684 36.7302 56.5795 36.9068 56.5558 37.0804C56.532 37.254 56.474 37.4211 56.385 37.572C56.296 37.723 56.1778 37.8547 56.0374 37.9595C55.897 38.0643 55.7371 38.14 55.5671 38.1824L53.2359 38.8081L56.1928 40.5136C56.4935 40.6899 56.7123 40.978 56.8014 41.315C56.8905 41.652 56.8427 42.0106 56.6684 42.3124C56.4941 42.6143 56.2075 42.835 55.8711 42.9263C55.5347 43.0177 55.1758 42.9722 54.8728 42.7999L51.9159 41.0944L52.5416 43.4256C52.5896 43.5941 52.6036 43.7705 52.5828 43.9445C52.562 44.1184 52.5067 44.2865 52.4203 44.4389C52.3338 44.5913 52.2179 44.725 52.0792 44.8321C51.9406 44.9392 51.782 45.0177 51.6127 45.0629C51.4435 45.1081 51.2669 45.1192 51.0933 45.0954C50.9197 45.0717 50.7526 45.0136 50.6016 44.9246C50.4507 44.8356 50.319 44.7175 50.2142 44.5771C50.1094 44.4367 50.0336 44.2768 49.9913 44.1068L48.6871 39.2279L44.2781 36.6828V41.7703L47.8528 45.3423C47.9755 45.4651 48.0729 45.6108 48.1393 45.7711C48.2057 45.9315 48.2399 46.1034 48.2399 46.2769C48.2399 46.4505 48.2057 46.6224 48.1393 46.7827C48.0729 46.9431 47.9755 47.0888 47.8528 47.2115C47.7301 47.3342 47.5844 47.4316 47.424 47.498C47.2636 47.5644 47.0918 47.5986 46.9182 47.5986C46.7446 47.5986 46.5728 47.5644 46.4124 47.498C46.252 47.4316 46.1063 47.3342 45.9836 47.2115L44.2781 45.5034V48.917C44.2781 49.2671 44.139 49.6029 43.8915 49.8504C43.6439 50.098 43.3082 50.2371 42.9581 50.2371C42.608 50.2371 42.2722 50.098 42.0247 49.8504C41.7771 49.6029 41.638 49.2671 41.638 48.917V19.8761C41.638 19.526 41.7771 19.1902 42.0247 18.9427C42.2722 18.6951 42.608 18.556 42.9581 18.556Z" fill="white"/>
</g>
<defs>
<clipPath id="clip0_28_900">
<rect width="42.2414" height="42.2414" fill="white" transform="translate(20.5173 13.2758)"/>
</clipPath>
</defs>
</svg>
