<svg width="139" height="39" viewBox="0 0 139 39" fill="none" xmlns="http://www.w3.org/2000/svg">
<path d="M138.481 3.19627C138.589 2.65473 138.238 2.12785 137.696 2.01945L128.871 0.253025C128.33 0.144627 127.803 0.495762 127.694 1.0373C127.586 1.57885 127.937 2.10573 128.479 2.21412L136.323 3.78428L134.753 11.6287C134.645 12.1702 134.996 12.6971 135.537 12.8055C136.079 12.9139 136.606 12.5628 136.714 12.0212L138.481 3.19627ZM136.945 2.16786C135.64 3.03757 134.332 3.88512 133.02 4.71091L134.085 6.40368C135.413 5.56839 136.735 4.71133 138.055 3.83214L136.945 2.16786ZM124.978 9.46603C122.244 10.9795 119.481 12.4054 116.677 13.7469L117.54 15.551C120.38 14.1921 123.179 12.7481 125.947 11.2158L124.978 9.46603ZM108.134 17.5211C105.271 18.6838 102.358 19.7675 99.382 20.7754L100.024 22.6697C103.036 21.6493 105.987 20.5518 108.887 19.3741L108.134 17.5211ZM90.4494 23.5222C87.496 24.3419 84.4769 25.096 81.3829 25.7871L81.8189 27.739C84.9449 27.0408 87.997 26.2785 90.9843 25.4493L90.4494 23.5222ZM72.2028 27.6149C69.1953 28.1445 66.1158 28.6222 62.957 29.05L63.2254 31.0319C66.4092 30.6007 69.5148 30.119 72.5496 29.5846L72.2028 27.6149ZM53.6585 30.144C50.6208 30.4502 47.5108 30.7163 44.3226 30.944L44.4651 32.9389C47.6715 32.7099 50.8009 32.4422 53.8591 32.1339L53.6585 30.144ZM34.9632 31.4926C31.9092 31.6348 28.7857 31.746 25.5882 31.8277L25.6393 33.8271C28.8498 33.7451 31.9874 33.6333 35.0562 33.4905L34.9632 31.4926ZM16.1999 31.9819C14.6501 31.994 13.0837 32 11.5 32V34C13.0887 34 14.6604 33.994 16.2155 33.9818L16.1999 31.9819Z" fill="#FF6F55"/>
<circle cx="7" cy="32" r="7" fill="#FF6F55"/>
</svg>
