<svg width="58" height="58" viewBox="0 0 58 58" fill="none" xmlns="http://www.w3.org/2000/svg">
<circle cx="29" cy="29" r="29" fill="#FF6F55"/>
<g clip-path="url(#clip0_45_161)">
<path d="M29.5001 13.0001C24.4251 13.0001 18.4543 14.2076 13.3563 16.8337L12.5645 17.2373V18.1375C12.5645 23.5493 12.6662 37.9912 28.753 47.5495L29.5001 48.0001L30.2471 47.5495C46.334 37.9912 46.4357 23.5493 46.4357 18.1375V17.2493L45.6493 16.8392C40.6137 14.2011 34.5751 12.999 29.5001 12.999V13.0001ZM29.5001 15.9346C33.8412 15.9346 39.1043 17.0448 43.4618 19.1415C43.4498 24.8104 42.8526 35.9754 29.5001 44.4115C16.1476 35.9754 15.5438 24.8104 15.5384 19.1415C19.9648 17.0404 25.159 15.9346 29.5001 15.9346ZM36.8424 24.0514C36.4607 24.0634 36.137 24.3018 35.9543 24.4845L28.1099 32.6253L25.1699 29.1045C23.7798 27.4934 21.8723 28.7403 21.4337 29.0301L28.2532 36.9489L37.5665 24.3357C37.4706 24.2431 37.3574 24.1704 37.2333 24.1216C37.1093 24.0728 36.9768 24.0489 36.8435 24.0514H36.8424Z" fill="white"/>
</g>
<defs>
<clipPath id="clip0_45_161">
<rect width="35" height="35" fill="white" transform="translate(12 13)"/>
</clipPath>
</defs>
</svg>
