<svg width="70" height="70" viewBox="0 0 70 70" fill="none" xmlns="http://www.w3.org/2000/svg">
<circle cx="35" cy="35" r="35" fill="#FF6F55"/>
<path d="M44.8407 22.0714C45.0017 22.0713 45.1604 22.1094 45.3039 22.1825C45.4473 22.2556 45.5713 22.3618 45.6658 22.4922L45.7391 22.6102L51.1772 32.8064L51.2355 32.9449L51.2504 32.9964L51.2735 33.1009L51.2871 33.2204L51.2844 33.3561L51.2871 33.2679C51.2875 33.4059 51.2598 33.5426 51.2057 33.6696L51.1649 33.751L51.1107 33.8406L51.0401 33.9342L35.8143 51.5282C35.684 51.7025 35.4999 51.8289 35.2904 51.8879L35.2117 51.9069L35.0801 51.9259L35 51.9286L34.8643 51.9191L34.7476 51.8974L34.6078 51.8512L34.5725 51.8349C34.447 51.7789 34.3349 51.6966 34.2441 51.5934L18.9477 33.9139L18.8636 33.7958L18.7984 33.6696L18.7509 33.5339L18.7197 33.3574V33.1837L18.7401 33.0494L18.7537 32.9951L18.7984 32.8662L18.8364 32.7888L24.265 22.6102C24.3407 22.4684 24.4489 22.3464 24.5807 22.2544C24.7126 22.1624 24.8644 22.103 25.0237 22.0809L25.1607 22.0714H44.8393H44.8407ZM40.3024 34.2857H29.6963L35.0027 48.0743L40.3024 34.2857ZM27.5181 34.2857H21.9579L31.9641 45.8459L27.5167 34.2857H27.5181ZM48.0408 34.2857H42.486L38.0441 45.8364L48.0422 34.2857H48.0408ZM29.6054 24.1058H25.7714L21.4286 32.25H27.4326L29.6054 24.1058ZM38.2911 24.1058H31.7117L29.5402 32.25H40.4612L38.2897 24.1058H38.2911ZM44.2299 24.1058H40.396L42.5688 32.25H48.5714L44.2299 24.1058Z" fill="white"/>
</svg>
