<svg width="56" height="56" viewBox="0 0 56 56" fill="none" xmlns="http://www.w3.org/2000/svg">
<circle cx="28" cy="28" r="28" fill="#FF6F55"/>
<g clip-path="url(#clip0_45_117)">
<path d="M27.6094 38.6313V35.9579C28.643 35.8686 29.6119 35.4174 30.3454 34.6838C31.079 33.9502 31.5302 32.9813 31.6195 31.9478H34.2929C34.2065 33.6924 33.4746 35.3426 32.2394 36.5778C31.0043 37.813 29.354 38.5449 27.6094 38.6313Z" fill="white"/>
<path fill-rule="evenodd" clip-rule="evenodd" d="M27.105 10.9733C27.2609 10.893 27.4337 10.8511 27.6091 10.8511C27.7845 10.8511 27.9574 10.893 28.1133 10.9733C28.2669 11.0525 28.3996 11.1666 28.5008 11.3065L37.3583 25.409C38.5872 27.3766 39.2743 29.6341 39.3499 31.9526C39.3448 35.0636 38.1067 38.0459 35.9068 40.2458C33.7058 42.4468 30.7218 43.685 27.6091 43.6889C24.4965 43.685 21.5125 42.4468 19.3115 40.2458C17.1115 38.0458 15.8734 35.0635 15.8684 31.9524C15.9395 29.6602 16.6132 27.4272 17.8215 25.4781L17.822 25.4774L26.7175 11.3065C26.8187 11.1666 26.9514 11.0525 27.105 10.9733ZM35.5425 26.4528L27.6091 13.8231L19.6351 26.522C18.6122 28.1491 18.0354 30.0166 17.9627 31.9372L17.9625 31.9426V31.9481C17.9625 34.5066 18.9789 36.9602 20.788 38.7693C22.597 40.5784 25.0507 41.5947 27.6091 41.5947C30.1676 41.5947 32.6212 40.5784 34.4303 38.7693C36.2394 36.9602 37.2557 34.5066 37.2557 31.9481V31.9423L37.2555 31.9365C37.1772 29.9899 36.5864 28.0984 35.5428 26.4533L35.5425 26.4528Z" fill="white"/>
<line x1="13.2267" y1="36.8926" x2="42.0267" y2="21.6926" stroke="white" stroke-width="1.6"/>
</g>
<defs>
<clipPath id="clip0_45_117">
<rect width="30.4" height="33.6" fill="white" transform="translate(9.6001 10.3999)"/>
</clipPath>
</defs>
</svg>
