<svg width="58" height="58" viewBox="0 0 58 58" fill="none" xmlns="http://www.w3.org/2000/svg">
<circle cx="29" cy="29" r="29" fill="#FF6F55"/>
<path d="M44.6055 27.8477C45.2617 26.9805 45.625 25.918 45.625 24.8125C45.625 23.0586 44.6445 21.3985 43.0664 20.4727C42.6601 20.2344 42.1976 20.109 41.7266 20.1094H32.3594L32.5938 15.3086C32.6484 14.1485 32.2383 13.0469 31.4414 12.2071C31.0503 11.7931 30.5785 11.4638 30.0551 11.2393C29.5318 11.0149 28.9679 10.9003 28.3984 10.9024C26.3672 10.9024 24.5703 12.2696 24.0312 14.2266L20.6758 26.375H15.625C14.9336 26.375 14.375 26.9336 14.375 27.625V41.8438C14.375 42.5352 14.9336 43.0938 15.625 43.0938H39.1133C39.4727 43.0938 39.8242 43.0235 40.1484 42.8828C42.0078 42.0899 43.207 40.2735 43.207 38.2578C43.207 37.7657 43.1367 37.2813 42.9961 36.8125C43.6523 35.9453 44.0156 34.8828 44.0156 33.7774C44.0156 33.2852 43.9453 32.8008 43.8047 32.3321C44.4609 31.4649 44.8242 30.4024 44.8242 29.2969C44.8164 28.8047 44.7461 28.3164 44.6055 27.8477ZM17.1875 40.2813V29.1875H20.3516V40.2813H17.1875ZM42.0469 26.4922L41.1914 27.2344L41.7344 28.2266C41.9133 28.5534 42.006 28.9204 42.0039 29.293C42.0039 29.9375 41.7227 30.5508 41.2383 30.9727L40.3828 31.7149L40.9258 32.7071C41.1047 33.0339 41.1974 33.4009 41.1953 33.7735C41.1953 34.418 40.9141 35.0313 40.4297 35.4532L39.5742 36.1953L40.1172 37.1875C40.2961 37.5144 40.3888 37.8814 40.3867 38.2539C40.3867 39.1289 39.8711 39.918 39.0742 40.2774H22.8516V29.0625L26.7383 14.9805C26.8385 14.6196 27.0536 14.3011 27.3511 14.0735C27.6486 13.8458 28.0121 13.7213 28.3867 13.7188C28.6836 13.7188 28.9766 13.8047 29.2109 13.9805C29.5977 14.2696 29.8047 14.7071 29.7812 15.1719L29.4062 22.9219H41.6875C42.3828 23.3477 42.8125 24.0664 42.8125 24.8125C42.8125 25.4571 42.5312 26.0664 42.0469 26.4922Z" fill="white"/>
</svg>
