<svg width="58" height="60" viewBox="0 0 58 60" fill="none" xmlns="http://www.w3.org/2000/svg">
<circle cx="29" cy="29" r="29" fill="#FF6F55"/>
<path d="M28.764 49.1365C22.6713 49.5845 14.936 47.6773 13.4502 42.1526C19.6355 44.0922 26.3937 43.868 32.3714 41.4678C25.9804 42.4768 19.4374 41.2345 13.861 37.9533C15.2039 33.1024 22.096 33.0452 27.0296 33.5555C36.753 34.5614 47.878 39.5701 47.878 39.5701C47.878 39.5701 37.3533 48.5046 28.764 49.1365Z" fill="white"/>
<path fill-rule="evenodd" clip-rule="evenodd" d="M28.1437 6.09193C28.2609 6.03152 28.3909 6 28.5227 6C28.6546 6 28.7846 6.03152 28.9018 6.09193C29.0172 6.15143 29.117 6.23725 29.1931 6.34244L35.8526 16.9453C36.7765 18.4246 37.2931 20.1219 37.3499 21.8651C37.3461 24.2041 36.4153 26.4462 34.7613 28.1002C33.1065 29.755 30.863 30.6859 28.5227 30.6889C26.1825 30.6859 23.939 29.755 22.2842 28.1002C20.6302 26.4462 19.6993 24.2039 19.6956 21.8649C19.749 20.1415 20.2555 18.4626 21.164 16.9972L21.1643 16.9967L27.8524 6.34242C27.9285 6.23725 28.0282 6.15143 28.1437 6.09193ZM34.4874 17.7301L28.5227 8.23452L22.5275 17.7821C21.7584 19.0054 21.3248 20.4095 21.2702 21.8534L21.27 21.8575V21.8617C21.27 23.7852 22.0341 25.63 23.3943 26.9901C24.7544 28.3503 26.5992 29.1144 28.5227 29.1144C30.4463 29.1144 32.291 28.3503 33.6512 26.9901C35.0113 25.63 35.7755 23.7852 35.7755 21.8617V21.8573L35.7753 21.8529C35.7164 20.3894 35.2722 18.9673 34.4876 17.7304L34.4874 17.7301Z" fill="white"/>
</svg>
