<svg width="139" height="39" viewBox="0 0 139 39" fill="none" xmlns="http://www.w3.org/2000/svg">
<path d="M0.01945 3.19627C-0.0889467 2.65473 0.262188 2.12785 0.80373 2.01945L9.62868 0.253025C10.1702 0.144627 10.6971 0.495762 10.8055 1.0373C10.9139 1.57885 10.5628 2.10573 10.0212 2.21412L2.17682 3.78428L3.74698 11.6287C3.85537 12.1702 3.50424 12.6971 2.9627 12.8055C2.42115 12.9139 1.89427 12.5628 1.78588 12.0212L0.01945 3.19627ZM1.55457 2.16786C2.85957 3.03757 4.16761 3.88512 5.47999 4.71091L4.41485 6.40368C3.08738 5.56839 1.76467 4.71133 0.44543 3.83214L1.55457 2.16786ZM13.5219 9.46603C16.2557 10.9795 19.019 12.4054 21.8228 13.7469L20.9596 15.551C18.1195 14.1921 15.3211 12.7481 12.5532 11.2158L13.5219 9.46603ZM30.3656 17.5211C33.2285 18.6838 36.1424 19.7675 39.118 20.7754L38.4764 22.6697C35.4638 21.6493 32.5129 20.5518 29.6131 19.3741L30.3656 17.5211ZM48.0506 23.5222C51.004 24.3419 54.0231 25.096 57.1171 25.7871L56.6811 27.739C53.5551 27.0408 50.503 26.2785 47.5157 25.4493L48.0506 23.5222ZM66.2972 27.6149C69.3047 28.1445 72.3842 28.6222 75.543 29.05L75.2746 31.0319C72.0908 30.6007 68.9852 30.119 65.9504 29.5846L66.2972 27.6149ZM84.8415 30.144C87.8792 30.4502 90.9892 30.7163 94.1774 30.944L94.0349 32.9389C90.8285 32.7099 87.6991 32.4422 84.6409 32.1339L84.8415 30.144ZM103.537 31.4926C106.591 31.6348 109.714 31.746 112.912 31.8277L112.861 33.8271C109.65 33.7451 106.513 33.6333 103.444 33.4905L103.537 31.4926ZM122.3 31.9819C123.85 31.994 125.416 32 127 32V34C125.411 34 123.84 33.994 122.285 33.9818L122.3 31.9819Z" fill="#FF6F55"/>
<circle cx="7" cy="7" r="7" transform="matrix(-1 0 0 1 138.5 25)" fill="#FF6F55"/>
</svg>
