<svg width="58" height="58" viewBox="0 0 58 58" fill="none" xmlns="http://www.w3.org/2000/svg">
<circle cx="29" cy="29" r="29" fill="#FF6F55"/>
<g clip-path="url(#clip0_45_155)">
<path fill-rule="evenodd" clip-rule="evenodd" d="M26.9606 12.0201C20.969 12.2611 15.3662 15.6188 12.3771 20.7599C8.36062 27.6679 9.51718 36.2674 15.217 41.8762C20.7987 47.3687 29.3706 48.5798 36.3105 44.8564C37.9897 43.9554 38.384 43.3758 37.8801 42.549C37.5615 42.0262 37.325 41.894 36.713 41.8967C36.1841 41.899 35.7463 42.0385 34.5603 42.5825C33.5739 43.0349 33.484 43.0735 32.9298 43.2818C29.8852 44.4264 26.2698 44.4921 23.1099 43.4603C13.7037 40.389 9.87785 29.4018 15.3921 21.296C18.6279 16.5394 24.4618 14.0625 30.198 15.0099C34.51 15.7221 38.2903 18.2505 40.52 21.9137C40.8692 22.4874 41.0174 22.7835 40.975 22.8227C40.956 22.8404 40.4907 22.9973 39.9412 23.1715C39.2372 23.3946 38.9125 23.5171 38.8424 23.5861C38.7134 23.7133 38.7112 23.9182 38.8373 24.0664C38.9249 24.1694 42.8061 26.6368 43.2215 26.8536C43.5603 27.0304 44.0082 26.9347 44.2348 26.637C44.2741 26.5853 44.7403 25.4909 45.2707 24.2049C46.2754 21.7691 46.33 21.6015 46.1694 21.4434C45.9999 21.2764 45.9104 21.2901 44.7111 21.6676C44.2066 21.8264 43.7897 21.9515 43.7846 21.9458C43.7795 21.94 43.686 21.759 43.5768 21.5435C41.8898 18.2136 39.0178 15.436 35.541 13.7716C33.4583 12.7746 30.9152 12.1194 28.8085 12.0369C28.5058 12.0251 28.1357 12.0096 27.986 12.0026C27.8364 11.9955 27.375 12.0034 26.9606 12.0201ZM27.7473 18.2047C27.4382 18.2657 27.1297 18.5006 26.968 18.7983L26.8769 18.9661L26.8559 24.2013L26.835 29.4366L23.3946 32.2017C21.5023 33.7225 19.8856 35.0317 19.8018 35.111C19.342 35.5467 19.3353 36.2614 19.7869 36.7124C20.1081 37.0331 20.7168 37.1423 21.0876 36.9456C21.1725 36.9005 23.0228 35.4348 25.1994 33.6883L29.1569 30.5129L29.147 24.7807L29.1371 19.0485L29.0482 18.8593C28.82 18.3732 28.2776 18.1002 27.7473 18.2047ZM36.1479 30.3566C33.7944 30.7619 32.1837 32.7098 32.2678 35.0492C32.3869 38.3629 35.8962 40.4154 38.9313 38.9465C39.4878 38.6771 39.6818 38.5253 40.7192 37.5473C41.204 37.0903 41.6149 36.7216 41.6323 36.7281C41.6497 36.7347 42.0498 37.1042 42.5214 37.5495C43.48 38.4545 43.7003 38.6283 44.2452 38.9093C47.1421 40.4031 50.629 38.5352 50.975 35.3041C51.216 33.0535 49.6893 30.9695 47.3976 30.4208C46.9262 30.308 45.7515 30.3181 45.2675 30.4392C44.2938 30.6827 43.761 31.0202 42.5518 32.1593C42.0569 32.6256 41.6359 33.0073 41.6164 33.0075C41.5968 33.0077 41.2041 32.6506 40.7437 32.214C39.4025 30.9421 38.8298 30.5956 37.728 30.3897C37.4165 30.3315 36.4155 30.3105 36.1479 30.3566ZM37.3826 33.0149C37.763 33.1097 38.032 33.3041 38.8424 34.0698C39.2827 34.4857 39.6483 34.8411 39.6548 34.8596C39.6721 34.908 38.1236 36.3571 37.9179 36.4851C36.678 37.2562 35.0044 36.4178 34.941 34.9938C34.8805 33.6366 36.0557 32.6842 37.3826 33.0149ZM46.8824 33.0299C48.4366 33.4287 48.8356 35.4333 47.5514 36.3909C46.917 36.8639 45.9431 36.8913 45.288 36.4546C45.0542 36.2988 43.627 34.9647 43.6066 34.8829C43.5857 34.7988 45.1168 33.3744 45.3877 33.226C45.8461 32.9749 46.3901 32.9035 46.8824 33.0299Z" fill="white"/>
</g>
<defs>
<clipPath id="clip0_45_155">
<rect width="41" height="35" fill="white" transform="translate(10 12)"/>
</clipPath>
</defs>
</svg>
