<svg width="139" height="39" viewBox="0 0 139 39" fill="none" xmlns="http://www.w3.org/2000/svg">
<path d="M138.481 35.8037C138.589 36.3453 138.238 36.8722 137.696 36.9806L128.871 38.747C128.33 38.8554 127.803 38.5042 127.694 37.9627C127.586 37.4212 127.937 36.8943 128.479 36.7859L136.323 35.2157L134.753 27.3713C134.645 26.8298 134.996 26.3029 135.537 26.1945C136.079 26.0861 136.606 26.4372 136.714 26.9788L138.481 35.8037ZM136.945 36.8321C135.64 35.9624 134.332 35.1149 133.02 34.2891L134.085 32.5963C135.413 33.4316 136.735 34.2887 138.055 35.1679L136.945 36.8321ZM124.978 29.534C122.244 28.0205 119.481 26.5946 116.677 25.2531L117.54 23.449C120.38 24.8079 123.179 26.2519 125.947 27.7842L124.978 29.534ZM108.134 21.4789C105.271 20.3162 102.358 19.2325 99.382 18.2246L100.024 16.3303C103.036 17.3507 105.987 18.4482 108.887 19.6259L108.134 21.4789ZM90.4494 15.4778C87.496 14.6581 84.4769 13.904 81.3829 13.2129L81.8189 11.261C84.9449 11.9592 87.997 12.7215 90.9843 13.5507L90.4494 15.4778ZM72.2028 11.3851C69.1953 10.8555 66.1158 10.3778 62.957 9.94995L63.2254 7.96805C66.4092 8.39931 69.5148 8.88101 72.5496 9.41538L72.2028 11.3851ZM53.6585 8.85601C50.6208 8.5498 47.5108 8.28367 44.3226 8.05602L44.4651 6.0611C47.6715 6.29005 50.8009 6.55782 53.8591 6.86609L53.6585 8.85601ZM34.9632 7.50738C31.9092 7.36524 28.7857 7.25395 25.5882 7.17228L25.6393 5.17293C28.8498 5.25494 31.9874 5.36671 35.0562 5.50954L34.9632 7.50738ZM16.1999 7.01809C14.6501 7.00599 13.0837 7 11.5 7V5C13.0887 5 14.6604 5.00601 16.2155 5.01815L16.1999 7.01809Z" fill="#FF6F55"/>
<circle cx="7" cy="7" r="7" transform="matrix(1 0 0 -1 0 14)" fill="#FF6F55"/>
</svg>
