<svg width="58" height="58" viewBox="0 0 58 58" fill="none" xmlns="http://www.w3.org/2000/svg">
<circle cx="29" cy="29" r="29" fill="#FF6F55"/>
<path d="M27.9375 38.3438C27.9372 38.9452 27.7715 39.5351 27.4587 40.0488C27.1458 40.5625 26.6978 40.9803 26.1635 41.2566C25.6292 41.5329 25.0293 41.657 24.4292 41.6154C23.8292 41.5738 23.2521 41.3681 22.7611 41.0207C22.2701 40.6733 21.884 40.1976 21.6451 39.6456C21.4061 39.0936 21.3235 38.4866 21.4062 37.8908C21.4889 37.295 21.7338 36.7335 22.1141 36.2675C22.4943 35.8014 22.9954 35.4489 23.5625 35.2484V31.7812C23.5625 31.4912 23.6777 31.213 23.8829 31.0079C24.088 30.8027 24.3662 30.6875 24.6563 30.6875C24.9463 30.6875 25.2245 30.8027 25.4296 31.0079C25.6348 31.213 25.75 31.4912 25.75 31.7812V35.2484C26.39 35.4747 26.9441 35.8939 27.3359 36.4483C27.7277 37.0027 27.9379 37.6649 27.9375 38.3438Z" fill="white"/>
<path d="M19.1875 16.4688C19.1875 15.0183 19.7637 13.6273 20.7893 12.6018C21.8149 11.5762 23.2059 11 24.6563 11C26.1067 11 27.4977 11.5762 28.5232 12.6018C29.5488 13.6273 30.125 15.0183 30.125 16.4688V32.9844C31.1801 34.0612 31.8938 35.4256 32.1766 36.9065C32.4594 38.3873 32.2987 39.9187 31.7147 41.3086C31.1306 42.6985 30.1492 43.885 28.8936 44.7194C27.6379 45.5538 26.1639 45.9989 24.6563 45.9989C23.1486 45.9989 21.6746 45.5538 20.4189 44.7194C19.1633 43.885 18.1819 42.6985 17.5978 41.3086C17.0138 39.9187 16.8531 38.3873 17.1359 36.9065C17.4187 35.4256 18.1324 34.0612 19.1875 32.9844V16.4688ZM24.6563 13.1875C23.786 13.1875 22.9514 13.5332 22.3361 14.1486C21.7207 14.7639 21.375 15.5985 21.375 16.4688V33.9403L21.0097 34.2684C20.1841 35.0068 19.6021 35.9784 19.3408 37.0547C19.0795 38.1311 19.1511 39.2614 19.5463 40.2961C19.9415 41.3308 20.6415 42.2211 21.5538 42.8492C22.4661 43.4774 23.5476 43.8137 24.6552 43.8137C25.7628 43.8137 26.8443 43.4774 27.7565 42.8492C28.6688 42.2211 29.3688 41.3308 29.764 40.2961C30.1592 39.2614 30.2308 38.1311 29.9695 37.0547C29.7082 35.9784 29.1263 35.0068 28.3006 34.2684L27.9375 33.9381V16.4688C27.9375 15.5985 27.5918 14.7639 26.9764 14.1486C26.3611 13.5332 25.5265 13.1875 24.6563 13.1875ZM35.5938 15.375C35.8838 15.375 36.162 15.4902 36.3672 15.6954C36.5723 15.9005 36.6875 16.1787 36.6875 16.4688V19.2972L38.1006 17.8819C38.306 17.6765 38.5846 17.5611 38.875 17.5611C39.1655 17.5611 39.444 17.6765 39.6494 17.8819C39.8548 18.0873 39.9701 18.3658 39.9701 18.6562C39.9701 18.9467 39.8548 19.2252 39.6494 19.4306L36.6875 22.3903V26.6056L40.3384 24.4991L41.4213 20.4522C41.4586 20.3134 41.5229 20.1834 41.6105 20.0695C41.6981 19.9556 41.8073 19.8601 41.9318 19.7884C42.0563 19.7167 42.1937 19.6702 42.3362 19.6516C42.4787 19.633 42.6234 19.6427 42.7622 19.68C42.9009 19.7173 43.031 19.7817 43.1449 19.8693C43.2588 19.9569 43.3543 20.066 43.426 20.1905C43.4977 20.3151 43.5442 20.4525 43.5628 20.595C43.5814 20.7374 43.5717 20.8822 43.5344 21.0209L43.0159 22.9503L45.4659 21.5372C45.717 21.3944 46.0144 21.3568 46.2931 21.4325C46.5718 21.5081 46.8093 21.691 46.9537 21.9411C47.0982 22.1912 47.1378 22.4883 47.064 22.7676C46.9901 23.0468 46.8089 23.2855 46.5597 23.4316L44.1097 24.8447L46.0434 25.3631C46.1822 25.4005 46.3122 25.4648 46.4261 25.5524C46.54 25.64 46.6355 25.7492 46.7073 25.8737C46.779 25.9982 46.8254 26.1356 46.844 26.2781C46.8626 26.4206 46.853 26.5653 46.8156 26.7041C46.7783 26.8428 46.714 26.9728 46.6264 27.0867C46.5388 27.2006 46.4296 27.2962 46.3051 27.3679C46.1806 27.4396 46.0431 27.4861 45.9007 27.5046C45.7582 27.5232 45.6134 27.5136 45.4747 27.4762L41.4322 26.3934L37.7813 28.5L41.4322 30.6066L45.4769 29.5238C45.6165 29.4839 45.7626 29.4723 45.9068 29.4896C46.0509 29.5069 46.1902 29.5526 46.3165 29.6243C46.4427 29.6959 46.5535 29.792 46.6422 29.9068C46.731 30.0217 46.796 30.1531 46.8335 30.2934C46.8709 30.4336 46.8801 30.5799 46.8604 30.7238C46.8407 30.8676 46.7926 31.0061 46.7189 31.1311C46.6452 31.2562 46.5473 31.3653 46.4309 31.4521C46.3146 31.539 46.1821 31.6018 46.0413 31.6369L44.1097 32.1553L46.5597 33.5684C46.8089 33.7145 46.9901 33.9532 47.064 34.2324C47.1378 34.5117 47.0982 34.8088 46.9537 35.0589C46.8093 35.309 46.5718 35.4919 46.2931 35.5675C46.0144 35.6432 45.717 35.6056 45.4659 35.4628L43.0159 34.0497L43.5344 35.9813C43.5742 36.1209 43.5858 36.267 43.5685 36.4111C43.5513 36.5553 43.5055 36.6946 43.4339 36.8208C43.3622 36.9471 43.2662 37.0578 43.1513 37.1466C43.0364 37.2354 42.905 37.3004 42.7648 37.3378C42.6245 37.3753 42.4782 37.3845 42.3344 37.3648C42.1905 37.3451 42.052 37.297 41.927 37.2233C41.8019 37.1495 41.6928 37.0516 41.606 36.9353C41.5192 36.819 41.4564 36.6865 41.4213 36.5456L40.3406 32.5031L36.6875 30.3944V34.6097L39.6494 37.5694C39.7511 37.6711 39.8317 37.7918 39.8868 37.9247C39.9418 38.0575 39.9701 38.1999 39.9701 38.3438C39.9701 38.4876 39.9418 38.63 39.8868 38.7628C39.8317 38.8957 39.7511 39.0164 39.6494 39.1181C39.5477 39.2198 39.427 39.3005 39.2941 39.3555C39.1612 39.4106 39.0188 39.4389 38.875 39.4389C38.7312 39.4389 38.5888 39.4106 38.4559 39.3555C38.323 39.3005 38.2023 39.2198 38.1006 39.1181L36.6875 37.7028V40.5312C36.6875 40.8213 36.5723 41.0995 36.3672 41.3046C36.162 41.5098 35.8838 41.625 35.5938 41.625C35.3037 41.625 35.0255 41.5098 34.8204 41.3046C34.6152 41.0995 34.5 40.8213 34.5 40.5312V16.4688C34.5 16.1787 34.6152 15.9005 34.8204 15.6954C35.0255 15.4902 35.3037 15.375 35.5938 15.375Z" fill="white"/>
</svg>
