<svg width="56" height="56" viewBox="0 0 56 56" fill="none" xmlns="http://www.w3.org/2000/svg">
<circle cx="28" cy="28" r="28" fill="#FF6F55"/>
<g clip-path="url(#clip0_45_142)">
<path fill-rule="evenodd" clip-rule="evenodd" d="M31.9929 10.1994C31.2519 10.5399 27.7318 12.3095 27.4045 12.506C27.2172 12.6185 27.0929 12.7169 27.0616 12.7773C27.0196 12.8588 27.0104 13.2841 26.9963 15.8045L26.98 18.737L25.8697 19.3968C25.259 19.7597 24.7541 20.0611 24.7476 20.0665C24.7412 20.0719 24.8015 20.1838 24.8816 20.3152C24.9617 20.4467 25.0668 20.624 25.1151 20.7094C25.1634 20.7949 25.2189 20.8647 25.2384 20.8647C25.286 20.8647 25.4791 20.7542 26.5616 20.1071L27.482 19.5569L28.307 19.9666C28.7607 20.192 29.1366 20.3811 29.1425 20.3869C29.1482 20.3927 29.1312 20.4916 29.1046 20.6066C28.6473 22.5842 29.8722 24.5634 31.7724 24.9173L31.9929 24.9583L31.9925 26.0742L31.9921 27.1901L31.6818 27.3507C31.5112 27.439 31.355 27.5314 31.3346 27.5559C31.2889 27.6111 31.6697 28.416 31.7415 28.416C31.7662 28.416 31.9366 28.3425 32.1203 28.2526C32.3039 28.1627 32.4724 28.0891 32.4946 28.0891C32.5168 28.0891 33.3498 28.4954 34.3458 28.9919C36.0802 29.8566 37.2884 30.4415 37.4388 30.4893C37.6 30.5405 42.4662 28.1229 42.8202 27.8158L42.9384 27.7132L42.9671 26.7979C43.02 25.1068 42.9871 21.4586 42.9174 21.2846C42.8639 21.151 42.1638 20.7715 39.6918 19.5359L38.0018 18.6912L37.9991 17.269C37.9947 14.8994 37.9545 12.8487 37.9109 12.7692C37.8897 12.7306 37.7764 12.6383 37.659 12.5641C37.0941 12.2069 32.9078 10.1147 32.5317 10.0015C32.4892 9.98872 32.3011 10.0578 31.9929 10.1994ZM34.7523 12.1774L36.9894 13.2969V15.9968V18.6968L36.2403 19.0616C35.8283 19.2622 35.4793 19.426 35.4647 19.4256C35.4501 19.4252 35.3081 19.226 35.149 18.9829C34.9899 18.7398 34.6602 18.2658 34.4163 17.9294C33.333 16.4357 33.0488 15.8772 32.9776 15.1012C32.9402 14.6922 32.7766 14.4903 32.4827 14.4903C32.1747 14.4903 32.0187 14.7155 31.9779 15.219C31.9237 15.8881 31.6169 16.4608 30.4233 18.1207C30.1446 18.5083 29.8313 18.9607 29.7271 19.1259C29.623 19.2912 29.5243 19.4264 29.5077 19.4264C29.4912 19.4264 29.1398 19.2571 28.7269 19.0503L27.976 18.6743V15.9855V13.2969L30.2049 12.1792C31.4308 11.5645 32.4521 11.0607 32.4745 11.0597C32.4969 11.0587 33.5219 11.5616 34.7523 12.1774ZM18.8321 14.0316C17.6775 14.1309 16.7791 15.3272 17.055 16.3979C17.2084 16.9928 17.6904 17.5648 18.2279 17.7898L18.4565 17.8854L18.4649 20.0056L18.4733 22.1258L18.2526 22.1846C17.6261 22.3515 16.4643 22.8977 15.795 23.3398C12.69 25.3912 10.7823 29.093 11.0199 32.6058C11.4446 38.8846 17.4424 43.2591 23.4525 41.6733C29.0013 40.2092 32.2333 34.3854 30.4742 29.0208C29.405 25.76 26.935 23.2428 23.7878 22.2064L23.4694 22.1015L23.4697 20.0039L23.47 17.9063L23.7684 17.7649C24.4622 17.4361 24.9389 16.7163 24.9389 15.9975C24.9389 15.2089 24.4838 14.5467 23.6717 14.1539L23.4005 14.0228L21.2714 14.0138C20.1004 14.0089 19.0027 14.0169 18.8321 14.0316ZM22.9842 15.0116C23.7113 15.068 23.9418 15.3046 23.9411 15.994C23.9407 16.3562 23.896 16.511 23.7427 16.6808C23.5415 16.9038 23.3762 16.9495 22.6693 16.9776C21.1091 17.0398 18.753 16.9937 18.5236 16.8965C18.1597 16.7423 18.0414 16.5479 18.022 16.0718C17.9929 15.3582 18.2411 15.0623 18.91 15.0126C19.3633 14.9789 22.5526 14.9782 22.9842 15.0116ZM32.7775 17.4184C32.9137 17.6328 33.2921 18.179 33.6183 18.6323C34.8942 20.405 35.0531 20.807 34.9353 21.9645C34.8661 22.6442 34.6658 23.0186 34.1189 23.4907C33.688 23.8626 33.3782 23.9507 32.4991 23.9514C31.4919 23.9521 31.2243 23.8587 30.6855 23.3182C30.1589 22.7898 30.0195 22.413 30.0198 21.5185C30.0201 20.6108 30.1724 20.2833 31.3752 18.6053C31.6428 18.2318 31.9962 17.7189 32.1604 17.4655C32.3246 17.2122 32.4749 17.0102 32.4943 17.0167C32.5138 17.0232 32.6412 17.2039 32.7775 17.4184ZM22.4967 20.3008C22.5058 21.9739 22.5199 22.6385 22.5477 22.7035C22.6056 22.8393 22.7419 22.9053 23.4369 23.134C23.7873 23.2493 24.2355 23.4123 24.433 23.4962C27.1366 24.6457 29.1861 27.2237 29.8243 30.2781C29.9882 31.0623 30.0038 32.7618 29.855 33.63C29.1879 37.5248 25.838 40.6445 21.9722 40.971C21.3857 41.0206 19.9645 40.9928 19.4954 40.9227C16.2264 40.4337 13.3093 37.8984 12.3685 34.7285C11.6933 32.4533 11.9216 29.8934 12.9853 27.8137C14.1457 25.5448 16.0818 23.9001 18.4728 23.1519C19.1022 22.955 19.3089 22.8672 19.3729 22.7695C19.4461 22.6575 19.4818 21.6164 19.4838 19.5326L19.4852 17.988H20.9846H22.484L22.4967 20.3008ZM39.7329 20.6742L41.9859 21.7912V24.4988V27.2064L39.7654 28.3179C38.544 28.9292 37.5227 29.4294 37.4957 29.4294C37.4688 29.4294 36.4399 28.9255 35.2093 28.3098L32.9718 27.1901L32.9804 26.0819L32.9889 24.9737L33.3483 24.8853C34.3535 24.6379 35.1413 23.9855 35.6178 23.0059C35.9591 22.3041 36.0432 21.5918 35.8887 20.7093C35.8596 20.543 35.8437 20.3989 35.8534 20.3892C35.8696 20.373 37.4522 19.56 37.4714 19.558C37.4761 19.5575 38.4937 20.0598 39.7329 20.6742ZM20.5629 24.5267C19.619 24.5887 18.4894 24.9028 17.6261 25.3433C15.5161 26.4201 13.8536 28.7109 13.5692 30.9331C13.5177 31.336 13.5181 32.6916 13.5698 33.0906C13.6904 34.0203 14.1426 35.1962 14.7017 36.0338C16.7508 39.1037 20.4155 40.2907 23.7308 38.9582C25.6312 38.1944 27.2799 36.501 27.9909 34.5827C28.3597 33.5877 28.5738 32.0701 28.3886 31.764C28.2435 31.5242 28.335 31.5274 21.6161 31.5241L16.4808 31.5215V32.0119V32.5022H21.9872H27.4937L27.4715 32.6902C27.1462 35.4434 25.2747 37.62 22.6203 38.3323C22.0976 38.4726 21.8597 38.4914 20.8051 38.4761C19.7204 38.4603 19.6096 38.4433 18.8321 38.1735C16.6951 37.4322 15.0566 35.5886 14.6052 33.4175C14.4655 32.7457 14.4656 31.3134 14.6053 30.6389C15.1756 27.8871 17.5352 25.7786 20.3147 25.5371C20.532 25.5182 20.7727 25.4953 20.8495 25.4862L20.9892 25.4697L20.9801 24.9923C20.9747 24.7066 20.958 24.5128 20.9384 24.5096C20.9205 24.5067 20.7515 24.5144 20.5629 24.5267ZM31.9929 32.0119V32.5022H37.4956H42.9983V32.0119V31.5215H37.4956H31.9929V32.0119ZM31.9929 34.0223V34.5289H37.4956H42.9983V34.0223V33.5156H37.4956H31.9929V34.0223ZM18.4728 34.5289V35.0193H18.979H19.4852V34.5289V34.0386H18.979H18.4728V34.5289ZM20.4976 34.5289V35.0193H20.9874H21.4773V34.5289V34.0386H20.9874H20.4976V34.5289ZM22.4897 34.5289V35.0193H22.9795H23.4694V34.5289V34.0386H22.9795H22.4897V34.5289ZM31.9929 36.0162V36.523H37.4964H43L42.991 36.0245L42.982 35.526L37.4874 35.5177L31.9929 35.5094V36.0162ZM31.9929 38.0267V38.5171H34.9973H38.0018V38.0267V37.5364H34.9973H31.9929V38.0267Z" fill="white" stroke="white" stroke-width="0.8"/>
</g>
<defs>
<clipPath id="clip0_45_142">
<rect width="34" height="34" fill="white" transform="translate(10 9)"/>
</clipPath>
</defs>
</svg>
