<svg width="139" height="39" viewBox="0 0 139 39" fill="none" xmlns="http://www.w3.org/2000/svg">
<path d="M0.01945 35.8037C-0.0889467 36.3453 0.262188 36.8722 0.80373 36.9806L9.62868 38.747C10.1702 38.8554 10.6971 38.5042 10.8055 37.9627C10.9139 37.4212 10.5628 36.8943 10.0212 36.7859L2.17682 35.2157L3.74698 27.3713C3.85537 26.8298 3.50424 26.3029 2.9627 26.1945C2.42115 26.0861 1.89427 26.4372 1.78588 26.9788L0.01945 35.8037ZM1.55457 36.8321C2.85957 35.9624 4.16761 35.1149 5.47999 34.2891L4.41485 32.5963C3.08738 33.4316 1.76467 34.2887 0.44543 35.1679L1.55457 36.8321ZM13.5219 29.534C16.2557 28.0205 19.019 26.5946 21.8228 25.2531L20.9596 23.449C18.1195 24.8079 15.3211 26.2519 12.5532 27.7842L13.5219 29.534ZM30.3656 21.4789C33.2285 20.3162 36.1424 19.2325 39.118 18.2246L38.4764 16.3303C35.4638 17.3507 32.5129 18.4482 29.6131 19.6259L30.3656 21.4789ZM48.0506 15.4778C51.004 14.6581 54.0231 13.904 57.1171 13.2129L56.6811 11.261C53.5551 11.9592 50.503 12.7215 47.5157 13.5507L48.0506 15.4778ZM66.2972 11.3851C69.3047 10.8555 72.3842 10.3778 75.543 9.94995L75.2746 7.96805C72.0908 8.39931 68.9852 8.88101 65.9504 9.41538L66.2972 11.3851ZM84.8415 8.85601C87.8792 8.5498 90.9892 8.28367 94.1774 8.05602L94.0349 6.0611C90.8285 6.29005 87.6991 6.55782 84.6409 6.86609L84.8415 8.85601ZM103.537 7.50738C106.591 7.36524 109.714 7.25395 112.912 7.17228L112.861 5.17293C109.65 5.25494 106.513 5.36671 103.444 5.50954L103.537 7.50738ZM122.3 7.01809C123.85 7.00599 125.416 7 127 7V5C125.411 5 123.84 5.00601 122.285 5.01815L122.3 7.01809Z" fill="#FF6F55"/>
<circle cx="131.5" cy="7" r="7" transform="rotate(180 131.5 7)" fill="#FF6F55"/>
</svg>
