<svg width="324" height="118" viewBox="0 0 324 118" fill="none" xmlns="http://www.w3.org/2000/svg">
<path d="M0.343637 77.0305C0.166027 77.5534 0.445977 78.1214 0.968923 78.299L9.49082 81.1933C10.0138 81.3709 10.5817 81.091 10.7593 80.568C10.9369 80.0451 10.657 79.4772 10.134 79.2996L2.55899 76.7268L5.13173 69.1518C5.30934 68.6288 5.02939 68.0609 4.50644 67.8833C3.9835 67.7057 3.41558 67.9857 3.23797 68.5086L0.343637 77.0305ZM1.73266 78.249C3.21443 77.5186 4.69634 76.7984 6.17865 76.0885L5.31471 74.2847C3.82553 74.9979 2.33684 75.7214 0.848372 76.4552L1.73266 78.249ZM15.1232 71.9311C18.1319 70.5755 21.1444 69.2614 24.163 67.9885L23.3859 66.1456C20.3521 67.4249 17.3248 68.7455 14.3016 70.1076L15.1232 71.9311ZM33.2966 64.2704C36.3628 63.0671 39.4375 61.9054 42.5231 60.7851L41.8405 58.9051C38.7387 60.0314 35.6479 61.1991 32.5659 62.4087L33.2966 64.2704ZM51.8368 57.5402C54.9542 56.4997 58.0849 55.5004 61.2311 54.5418L60.6483 52.6286C57.4851 53.5924 54.3376 54.5971 51.2036 55.6431L51.8368 57.5402ZM70.7012 51.793C73.8626 50.9205 77.0418 50.0879 80.241 49.2949L79.7598 47.3536C76.5437 48.1509 73.3475 48.9879 70.1691 49.8651L70.7012 51.793ZM89.8444 47.0467C93.042 46.3417 96.2613 45.6748 99.5045 45.0457L99.1237 43.0823C95.8639 43.7146 92.628 44.3849 89.4137 45.0936L89.8444 47.0467ZM109.214 43.2875C112.437 42.7448 115.685 42.2379 118.96 41.7667L118.675 39.7871C115.385 40.2606 112.121 40.7698 108.882 41.3152L109.214 43.2875ZM128.737 40.4753C131.977 40.0849 135.245 39.7279 138.542 39.404L138.347 37.4136C135.035 37.7389 131.753 38.0975 128.498 38.4897L128.737 40.4753ZM148.37 38.5432C151.622 38.2924 154.903 38.0723 158.215 37.8827L158.101 35.886C154.776 36.0763 151.482 36.2972 148.216 36.5491L148.37 38.5432ZM168.073 37.4121C171.331 37.2869 174.619 37.1898 177.939 37.1207L177.898 35.1211C174.566 35.1905 171.266 35.2879 167.996 35.4136L168.073 37.4121ZM187.811 36.9979C191.071 36.984 194.362 36.9959 197.686 37.0332L197.709 35.0334C194.375 34.9959 191.073 34.984 187.803 34.9979L187.811 36.9979ZM207.562 37.2167C210.823 37.3006 214.115 37.408 217.439 37.5386L217.518 35.5401C214.184 35.4092 210.884 35.3015 207.614 35.2173L207.562 37.2167ZM227.315 37.9897C230.567 38.1585 233.849 38.3486 237.164 38.5597L237.291 36.5637C233.969 36.3521 230.678 36.1616 227.419 35.9924L227.315 37.9897ZM247.007 39.2411C250.256 39.4837 253.536 39.7455 256.847 40.0265L257.016 38.0336C253.698 37.7521 250.412 37.4897 247.156 37.2467L247.007 39.2411ZM266.686 40.9087C269.935 41.2153 273.215 41.5396 276.525 41.8813L276.731 39.8919C273.414 39.5496 270.129 39.2247 266.873 38.9175L266.686 40.9087ZM286.37 42.9386C289.608 43.2997 292.876 43.6768 296.175 44.0697L296.411 42.0838C293.108 41.6902 289.835 41.3126 286.591 40.951L286.37 42.9386ZM305.966 45.2716C307.605 45.4785 309.251 45.6892 310.905 45.9036L311.162 43.9202C309.506 43.7055 307.858 43.4946 306.217 43.2874L305.966 45.2716Z" fill="#FF6F55"/>
<circle cx="315.367" cy="46.4827" r="7" transform="rotate(-172.612 315.367 46.4827)" fill="#FF6F55"/>
</svg>
